{
	"asset":{
		"generator":"Khronos glTF Blender I/O v4.5.48",
		"version":"2.0"
	},
	"scene":0,
	"scenes":[
		{
			"name":"Scene",
			"nodes":[
				0
			]
		}
	],
	"nodes":[
		{
			"mesh":0,
			"name":"Digital_Wristwatch"
		}
	],
	"materials":[
		{
			"doubleSided":true,
			"name":"Digital_Wristwatch",
			"normalTexture":{
				"index":0
			},
			"pbrMetallicRoughness":{
				"baseColorTexture":{
					"index":1
				},
				"metallicRoughnessTexture":{
					"index":2
				}
			}
		}
	],
	"meshes":[
		{
			"name":"Digital_Wristwatch",
			"primitives":[
				{
					"attributes":{
						"POSITION":0,
						"NORMAL":1,
						"TEXCOORD_0":2,
						"TEXCOORD_1":3
					},
					"indices":4,
					"material":0
				}
			]
		}
	],
	"textures":[
		{
			"sampler":0,
			"source":0
		},
		{
			"sampler":0,
			"source":1
		},
		{
			"sampler":0,
			"source":2
		}
	],
	"images":[
		{
			"mimeType":"image/png",
			"name":"DigitalWristwatch_New_NormalOGL8",
			"uri":"textures/DigitalWristwatch_New_NormalOGL8.png"
		},
		{
			"mimeType":"image/png",
			"name":"DigitalWristwatch_New_Time_Diffuse",
			"uri":"textures/DigitalWristwatch_New_Time_Diffuse.png"
		},
		{
			"mimeType":"image/png",
			"name":"DigitalWristwatch_New_Metallic-DigitalWristwatch_New_Roughness",
			"uri":"textures/DigitalWristwatch_New_Metallic-DigitalWristwatch_New_Roughness.png"
		}
	],
	"accessors":[
		{
			"bufferView":0,
			"componentType":5126,
			"count":23580,
			"max":[
				2.3890395164489746,
				1.4843370914459229,
				1.3354508876800537
			],
			"min":[
				-2.3487393856048584,
				-1.526129126548767,
				-1.3354569673538208
			],
			"type":"VEC3"
		},
		{
			"bufferView":1,
			"componentType":5126,
			"count":23580,
			"type":"VEC3"
		},
		{
			"bufferView":2,
			"componentType":5126,
			"count":23580,
			"type":"VEC2"
		},
		{
			"bufferView":3,
			"componentType":5126,
			"count":23580,
			"type":"VEC2"
		},
		{
			"bufferView":4,
			"componentType":5123,
			"count":28932,
			"type":"SCALAR"
		}
	],
	"bufferViews":[
		{
			"buffer":0,
			"byteLength":282960,
			"byteOffset":0,
			"target":34962
		},
		{
			"buffer":0,
			"byteLength":282960,
			"byteOffset":282960,
			"target":34962
		},
		{
			"buffer":0,
			"byteLength":188640,
			"byteOffset":565920,
			"target":34962
		},
		{
			"buffer":0,
			"byteLength":188640,
			"byteOffset":754560,
			"target":34962
		},
		{
			"buffer":0,
			"byteLength":57864,
			"byteOffset":943200,
			"target":34963
		}
	],
	"samplers":[
		{
			"magFilter":9729,
			"minFilter":9987
		}
	],
	"buffers":[
		{
			"byteLength":1001064,
			"uri":"watchCasio.bin"
		}
	]
}
