<svg width="1212" height="45" viewBox="0 0 1212 45" fill="none" xmlns="http://www.w3.org/2000/svg">
<g filter="url(#filter0_ddd_9_164143)">
<rect width="1208" height="40" transform="translate(2 2)" fill="white"/>
<path fill-rule="evenodd" clip-rule="evenodd" d="M20.4422 16.8843C21.7909 16.8843 22.8843 15.7909 22.8843 14.4422C22.8843 13.0934 21.7909 12 20.4422 12C19.0934 12 18 13.0934 18 14.4422C18 15.7909 19.0934 16.8843 20.4422 16.8843Z" fill="#747474"/>
<path fill-rule="evenodd" clip-rule="evenodd" d="M20.4422 24.4422C21.7909 24.4422 22.8843 23.3488 22.8843 22C22.8843 20.6512 21.7909 19.5578 20.4422 19.5578C19.0934 19.5578 18 20.6512 18 22C18 23.3488 19.0934 24.4422 20.4422 24.4422Z" fill="#747474"/>
<path fill-rule="evenodd" clip-rule="evenodd" d="M20.4422 32C21.7909 32 22.8843 30.9066 22.8843 29.5578C22.8843 28.2091 21.7909 27.1157 20.4422 27.1157C19.0934 27.1157 18 28.2091 18 29.5578C18 30.9066 19.0934 32 20.4422 32Z" fill="#747474"/>
<path fill-rule="evenodd" clip-rule="evenodd" d="M28 16.8843C29.3488 16.8843 30.4422 15.7909 30.4422 14.4422C30.4422 13.0934 29.3488 12 28 12C26.6512 12 25.5578 13.0934 25.5578 14.4422C25.5578 15.7909 26.6512 16.8843 28 16.8843Z" fill="#747474"/>
<path fill-rule="evenodd" clip-rule="evenodd" d="M28 24.4422C29.3488 24.4422 30.4422 23.3488 30.4422 22C30.4422 20.6512 29.3488 19.5578 28 19.5578C26.6512 19.5578 25.5578 20.6512 25.5578 22C25.5578 23.3488 26.6512 24.4422 28 24.4422Z" fill="#747474"/>
<path fill-rule="evenodd" clip-rule="evenodd" d="M28 32C29.3488 32 30.4422 30.9066 30.4422 29.5578C30.4422 28.2091 29.3488 27.1157 28 27.1157C26.6512 27.1157 25.5578 28.2091 25.5578 29.5578C25.5578 30.9066 26.6512 32 28 32Z" fill="#747474"/>
<path fill-rule="evenodd" clip-rule="evenodd" d="M35.5578 16.8843C36.9066 16.8843 38 15.7909 38 14.4422C38 13.0934 36.9066 12 35.5578 12C34.2091 12 33.1157 13.0934 33.1157 14.4422C33.1157 15.7909 34.2091 16.8843 35.5578 16.8843Z" fill="#747474"/>
<path fill-rule="evenodd" clip-rule="evenodd" d="M35.5578 24.4422C36.9066 24.4422 38 23.3488 38 22C38 20.6512 36.9066 19.5578 35.5578 19.5578C34.2091 19.5578 33.1157 20.6512 33.1157 22C33.1157 23.3488 34.2091 24.4422 35.5578 24.4422Z" fill="#747474"/>
<path fill-rule="evenodd" clip-rule="evenodd" d="M35.5578 32C36.9066 32 38 30.9066 38 29.5578C38 28.2091 36.9066 27.1157 35.5578 27.1157C34.2091 27.1157 33.1157 28.2091 33.1157 29.5578C33.1157 30.9066 34.2091 32 35.5578 32Z" fill="#747474"/>
<path d="M60.3086 29.3125C59.2865 29.3125 58.3913 29.1465 57.623 28.8145C56.8548 28.4824 56.2461 28.0234 55.7969 27.4375C55.3542 26.8451 55.097 26.1647 55.0254 25.3965L55.0156 25.2793H56.7734L56.793 25.3965C56.8451 25.8652 57.0273 26.2721 57.3398 26.6172C57.6523 26.9557 58.0723 27.2194 58.5996 27.4082C59.127 27.597 59.7292 27.6914 60.4062 27.6914C61.0573 27.6914 61.6302 27.5905 62.125 27.3887C62.6263 27.1868 63.0169 26.9036 63.2969 26.5391C63.5768 26.1745 63.7168 25.7546 63.7168 25.2793V25.2695C63.7168 24.6771 63.502 24.1855 63.0723 23.7949C62.6426 23.3978 61.9427 23.0918 60.9727 22.877L59.4102 22.5352C58.0104 22.2227 56.985 21.7409 56.334 21.0898C55.6895 20.4388 55.3672 19.6022 55.3672 18.5801V18.5703C55.3737 17.7891 55.5885 17.1022 56.0117 16.5098C56.4349 15.9108 57.0176 15.4421 57.7598 15.1035C58.5085 14.765 59.3646 14.5957 60.3281 14.5957C61.2656 14.5957 62.0957 14.765 62.8184 15.1035C63.541 15.4355 64.1139 15.888 64.5371 16.4609C64.9668 17.0273 65.2044 17.6719 65.25 18.3945L65.2598 18.5312H63.502L63.4824 18.4043C63.4173 17.9681 63.248 17.5872 62.9746 17.2617C62.7012 16.9362 62.3366 16.6823 61.8809 16.5C61.4251 16.3112 60.8913 16.2168 60.2793 16.2168C59.6868 16.2168 59.1562 16.3112 58.6875 16.5C58.2188 16.6823 57.8477 16.946 57.5742 17.291C57.3008 17.6296 57.1641 18.0397 57.1641 18.5215V18.5312C57.1641 19.0977 57.3757 19.5729 57.7988 19.957C58.222 20.3346 58.9056 20.6243 59.8496 20.8262L61.4121 21.1777C62.3952 21.3926 63.1862 21.6725 63.7852 22.0176C64.3841 22.3626 64.8203 22.7858 65.0938 23.2871C65.3737 23.7884 65.5137 24.3809 65.5137 25.0645V25.0742C65.5137 25.9466 65.2988 26.6986 64.8691 27.3301C64.446 27.9616 63.8438 28.4499 63.0625 28.7949C62.2812 29.14 61.3633 29.3125 60.3086 29.3125ZM70.9141 29.1855C70.25 29.1855 69.6543 29.0586 69.127 28.8047C68.6061 28.5508 68.1927 28.1927 67.8867 27.7305C67.5872 27.2617 67.4375 26.7116 67.4375 26.0801V26.0605C67.4375 25.4421 67.584 24.9147 67.877 24.4785C68.1764 24.0358 68.6094 23.6875 69.1758 23.4336C69.7422 23.1797 70.429 23.0299 71.2363 22.9844L75.0742 22.7598V24.1074L71.4414 24.332C70.6667 24.3776 70.0938 24.5436 69.7227 24.8301C69.3581 25.1165 69.1758 25.5169 69.1758 26.0312V26.0508C69.1758 26.5716 69.3711 26.9785 69.7617 27.2715C70.1589 27.5645 70.6634 27.7109 71.2754 27.7109C71.8418 27.7109 72.3464 27.597 72.7891 27.3691C73.2383 27.1413 73.5898 26.8288 73.8438 26.4316C74.0977 26.0345 74.2246 25.5885 74.2246 25.0938V21.8809C74.2246 21.2363 74.0293 20.7415 73.6387 20.3965C73.248 20.0514 72.6686 19.8789 71.9004 19.8789C71.2624 19.8789 70.7415 19.9993 70.3379 20.2402C69.9342 20.4746 69.6673 20.8034 69.5371 21.2266L69.5273 21.2656H67.8477L67.8574 21.1973C67.9355 20.6439 68.1536 20.1556 68.5117 19.7324C68.8698 19.3092 69.3418 18.9772 69.9277 18.7363C70.5137 18.4954 71.1875 18.375 71.9492 18.375C72.7891 18.375 73.5052 18.515 74.0977 18.7949C74.6966 19.0684 75.1491 19.4655 75.4551 19.9863C75.7676 20.5007 75.9238 21.1159 75.9238 21.832V29H74.2246V27.4277H74.0977C73.8828 27.7988 73.6159 28.1178 73.2969 28.3848C72.9779 28.6452 72.6198 28.8438 72.2227 28.9805C71.8255 29.1172 71.3893 29.1855 70.9141 29.1855ZM78.9023 29V14.4395H80.6016V29H78.9023ZM87.9062 29.1855C86.9102 29.1855 86.054 28.9674 85.3379 28.5312C84.6217 28.0885 84.0716 27.4668 83.6875 26.666C83.3034 25.8587 83.1113 24.9082 83.1113 23.8145V23.8047C83.1113 22.7305 83.3034 21.7865 83.6875 20.9727C84.0716 20.1589 84.6152 19.5241 85.3184 19.0684C86.028 18.6061 86.8548 18.375 87.7988 18.375C88.7428 18.375 89.5566 18.5964 90.2402 19.0391C90.9238 19.4753 91.4479 20.0872 91.8125 20.875C92.1771 21.6562 92.3594 22.5677 92.3594 23.6094V24.2637H83.9805V22.9062H91.5L90.6602 24.1465V23.4824C90.6602 22.6621 90.5365 21.9883 90.2891 21.4609C90.0417 20.9336 89.7031 20.5397 89.2734 20.2793C88.8438 20.0189 88.349 19.8887 87.7891 19.8887C87.2292 19.8887 86.7279 20.0254 86.2852 20.2988C85.8424 20.5723 85.4909 20.9759 85.2305 21.5098C84.9766 22.0436 84.8496 22.7012 84.8496 23.4824V24.1465C84.8496 24.8887 84.9733 25.5234 85.2207 26.0508C85.4746 26.5716 85.8327 26.972 86.2949 27.252C86.7637 27.5319 87.3138 27.6719 87.9453 27.6719C88.4076 27.6719 88.8112 27.6068 89.1562 27.4766C89.5078 27.3464 89.7975 27.1803 90.0254 26.9785C90.2533 26.7702 90.4128 26.5521 90.5039 26.3242L90.543 26.2363H92.2324L92.2129 26.3145C92.1283 26.6855 91.9688 27.0436 91.7344 27.3887C91.5 27.7272 91.2005 28.0332 90.8359 28.3066C90.4714 28.5801 90.0417 28.7949 89.5469 28.9512C89.0521 29.1074 88.5052 29.1855 87.9062 29.1855ZM98.3945 29.1855C97.6133 29.1855 96.9232 29.0651 96.3242 28.8242C95.7318 28.5833 95.2565 28.2448 94.8984 27.8086C94.5469 27.3724 94.3385 26.8613 94.2734 26.2754V26.2559H96.002V26.2754C96.1387 26.7311 96.4089 27.0957 96.8125 27.3691C97.2227 27.6361 97.7663 27.7695 98.4434 27.7695C98.9186 27.7695 99.332 27.7044 99.6836 27.5742C100.035 27.4375 100.312 27.2487 100.514 27.0078C100.715 26.7669 100.816 26.4902 100.816 26.1777V26.1582C100.816 25.8001 100.68 25.5007 100.406 25.2598C100.133 25.0124 99.6803 24.8105 99.0488 24.6543L97.418 24.2637C96.7669 24.1074 96.2298 23.9056 95.8066 23.6582C95.3835 23.4043 95.071 23.0951 94.8691 22.7305C94.6673 22.3594 94.5664 21.9264 94.5664 21.4316V21.4219C94.5664 20.8359 94.7324 20.3151 95.0645 19.8594C95.403 19.3971 95.8652 19.0358 96.4512 18.7754C97.0371 18.5085 97.6979 18.375 98.4336 18.375C99.1758 18.375 99.8268 18.4954 100.387 18.7363C100.953 18.9707 101.406 19.3027 101.744 19.7324C102.089 20.1621 102.294 20.6634 102.359 21.2363L102.369 21.2656H100.709V21.2461C100.605 20.8164 100.357 20.4681 99.9668 20.2012C99.5762 19.9277 99.0651 19.791 98.4336 19.791C98.0169 19.791 97.6491 19.8561 97.3301 19.9863C97.0111 20.1165 96.7604 20.2988 96.5781 20.5332C96.3958 20.7611 96.3047 21.0312 96.3047 21.3438V21.3633C96.3047 21.5911 96.3633 21.7995 96.4805 21.9883C96.6042 22.1706 96.793 22.3301 97.0469 22.4668C97.3008 22.6035 97.6263 22.7207 98.0234 22.8184L99.6445 23.209C100.647 23.4499 101.383 23.7949 101.852 24.2441C102.32 24.6868 102.555 25.2826 102.555 26.0312V26.0508C102.555 26.6693 102.372 27.2161 102.008 27.6914C101.643 28.1602 101.148 28.528 100.523 28.7949C99.8984 29.0553 99.1888 29.1855 98.3945 29.1855Z" fill="#03234D"/>
<rect width="72" height="32" transform="translate(128 6)" fill="white"/>
<path d="M141.217 26.5V16.6357H142.98V20.7373H147.779V16.6357H149.536V26.5H147.779V22.2207H142.98V26.5H141.217ZM154.829 26.6504C154.087 26.6504 153.446 26.4954 152.908 26.1855C152.371 25.8711 151.956 25.4245 151.664 24.8457C151.377 24.2669 151.234 23.5742 151.234 22.7676V22.7539C151.234 21.9564 151.38 21.2682 151.671 20.6895C151.963 20.1061 152.375 19.6595 152.908 19.3496C153.446 19.0397 154.087 18.8848 154.829 18.8848C155.572 18.8848 156.21 19.0397 156.743 19.3496C157.281 19.6595 157.696 20.1038 157.988 20.6826C158.279 21.2614 158.425 21.9518 158.425 22.7539V22.7676C158.425 23.5742 158.279 24.2669 157.988 24.8457C157.7 25.4245 157.288 25.8711 156.75 26.1855C156.217 26.4954 155.577 26.6504 154.829 26.6504ZM154.829 25.2695C155.221 25.2695 155.554 25.1715 155.827 24.9756C156.105 24.7751 156.317 24.4902 156.463 24.1211C156.609 23.7474 156.682 23.2985 156.682 22.7744V22.7607C156.682 22.2321 156.609 21.7832 156.463 21.4141C156.317 21.0404 156.105 20.7555 155.827 20.5596C155.554 20.359 155.221 20.2588 154.829 20.2588C154.437 20.2588 154.103 20.359 153.825 20.5596C153.547 20.7555 153.335 21.0404 153.189 21.4141C153.043 21.7832 152.97 22.2321 152.97 22.7607V22.7744C152.97 23.2985 153.043 23.7474 153.189 24.1211C153.335 24.4948 153.544 24.7796 153.818 24.9756C154.096 25.1715 154.433 25.2695 154.829 25.2695ZM159.938 26.5V19.0283H161.64V20.1904H161.756C161.916 19.7757 162.173 19.4544 162.529 19.2266C162.889 18.9987 163.315 18.8848 163.807 18.8848C164.144 18.8848 164.448 18.9395 164.716 19.0488C164.99 19.1582 165.225 19.3132 165.42 19.5137C165.616 19.7142 165.767 19.9535 165.872 20.2314H165.995C166.118 19.9626 166.289 19.7279 166.507 19.5273C166.731 19.3223 166.99 19.165 167.287 19.0557C167.587 18.9417 167.911 18.8848 168.257 18.8848C168.759 18.8848 169.187 18.985 169.543 19.1855C169.903 19.3815 170.178 19.6641 170.37 20.0332C170.566 20.4023 170.664 20.8444 170.664 21.3594V26.5H168.962V21.7764C168.962 21.4482 168.911 21.1771 168.811 20.9629C168.715 20.7487 168.567 20.5869 168.367 20.4775C168.166 20.3682 167.913 20.3135 167.608 20.3135C167.312 20.3135 167.054 20.3818 166.836 20.5186C166.617 20.6507 166.446 20.8307 166.323 21.0586C166.204 21.2865 166.145 21.5439 166.145 21.8311V26.5H164.443V21.6533C164.443 21.3753 164.388 21.1361 164.279 20.9355C164.174 20.735 164.019 20.5824 163.814 20.4775C163.614 20.3682 163.374 20.3135 163.096 20.3135C162.818 20.3135 162.568 20.3864 162.344 20.5322C162.126 20.6735 161.952 20.8695 161.825 21.1201C161.702 21.3662 161.64 21.6442 161.64 21.9541V26.5H159.938ZM175.67 26.6504C174.927 26.6504 174.289 26.4932 173.756 26.1787C173.227 25.8643 172.819 25.4176 172.532 24.8389C172.245 24.2601 172.101 23.5742 172.101 22.7812V22.7744C172.101 21.9906 172.243 21.307 172.525 20.7236C172.812 20.1403 173.218 19.6891 173.742 19.3701C174.266 19.0465 174.881 18.8848 175.588 18.8848C176.299 18.8848 176.909 19.042 177.42 19.3564C177.935 19.6663 178.331 20.1016 178.609 20.6621C178.887 21.2227 179.026 21.8789 179.026 22.6309V23.1914H172.956V22.0498H178.192L177.386 23.1162V22.4395C177.386 21.9427 177.31 21.5303 177.16 21.2021C177.01 20.874 176.8 20.6279 176.531 20.4639C176.267 20.2998 175.959 20.2178 175.608 20.2178C175.257 20.2178 174.945 20.3044 174.672 20.4775C174.403 20.6462 174.189 20.8968 174.029 21.2295C173.874 21.5576 173.797 21.9609 173.797 22.4395V23.123C173.797 23.5833 173.874 23.9775 174.029 24.3057C174.184 24.6292 174.403 24.8799 174.685 25.0576C174.973 25.2308 175.312 25.3174 175.704 25.3174C176.009 25.3174 176.271 25.2741 176.49 25.1875C176.713 25.0964 176.893 24.9893 177.03 24.8662C177.167 24.7386 177.263 24.6178 177.317 24.5039L177.338 24.4561H178.951L178.937 24.5176C178.878 24.7591 178.769 25.0052 178.609 25.2559C178.454 25.502 178.242 25.7321 177.974 25.9463C177.709 26.1559 177.386 26.3268 177.003 26.459C176.62 26.5866 176.176 26.6504 175.67 26.6504Z" fill="#03234D"/>
<rect x="128" y="38" width="72" height="3" fill="white"/>
<rect width="134" height="32" transform="translate(200 6)" fill="white"/>
<path d="M213.217 26.5V16.6357H219.506V18.1191H214.98V21.0381H219.116V22.4736H214.98V26.5H213.217ZM224.51 26.6504C223.767 26.6504 223.127 26.4954 222.589 26.1855C222.051 25.8711 221.636 25.4245 221.345 24.8457C221.058 24.2669 220.914 23.5742 220.914 22.7676V22.7539C220.914 21.9564 221.06 21.2682 221.352 20.6895C221.643 20.1061 222.056 19.6595 222.589 19.3496C223.127 19.0397 223.767 18.8848 224.51 18.8848C225.253 18.8848 225.891 19.0397 226.424 19.3496C226.962 19.6595 227.376 20.1038 227.668 20.6826C227.96 21.2614 228.105 21.9518 228.105 22.7539V22.7676C228.105 23.5742 227.96 24.2669 227.668 24.8457C227.381 25.4245 226.968 25.8711 226.431 26.1855C225.897 26.4954 225.257 26.6504 224.51 26.6504ZM224.51 25.2695C224.902 25.2695 225.234 25.1715 225.508 24.9756C225.786 24.7751 225.998 24.4902 226.144 24.1211C226.289 23.7474 226.362 23.2985 226.362 22.7744V22.7607C226.362 22.2321 226.289 21.7832 226.144 21.4141C225.998 21.0404 225.786 20.7555 225.508 20.5596C225.234 20.359 224.902 20.2588 224.51 20.2588C224.118 20.2588 223.783 20.359 223.505 20.5596C223.227 20.7555 223.015 21.0404 222.869 21.4141C222.723 21.7832 222.65 22.2321 222.65 22.7607V22.7744C222.65 23.2985 222.723 23.7474 222.869 24.1211C223.015 24.4948 223.225 24.7796 223.498 24.9756C223.776 25.1715 224.113 25.2695 224.51 25.2695ZM229.814 26.5V19.0283H231.517V20.1768H231.633C231.76 19.7757 231.988 19.4635 232.316 19.2402C232.649 19.0169 233.062 18.9053 233.554 18.9053C233.681 18.9053 233.807 18.9144 233.93 18.9326C234.057 18.9463 234.162 18.9645 234.244 18.9873V20.5117C234.107 20.4798 233.968 20.457 233.827 20.4434C233.69 20.4251 233.547 20.416 233.396 20.416C233.018 20.416 232.688 20.4867 232.405 20.6279C232.123 20.7692 231.904 20.972 231.749 21.2363C231.594 21.4961 231.517 21.8037 231.517 22.1592V26.5H229.814ZM238.646 26.6504C237.904 26.6504 237.266 26.4932 236.732 26.1787C236.204 25.8643 235.796 25.4176 235.509 24.8389C235.222 24.2601 235.078 23.5742 235.078 22.7812V22.7744C235.078 21.9906 235.219 21.307 235.502 20.7236C235.789 20.1403 236.195 19.6891 236.719 19.3701C237.243 19.0465 237.858 18.8848 238.564 18.8848C239.275 18.8848 239.886 19.042 240.396 19.3564C240.911 19.6663 241.308 20.1016 241.586 20.6621C241.864 21.2227 242.003 21.8789 242.003 22.6309V23.1914H235.933V22.0498H241.169L240.362 23.1162V22.4395C240.362 21.9427 240.287 21.5303 240.137 21.2021C239.986 20.874 239.777 20.6279 239.508 20.4639C239.243 20.2998 238.936 20.2178 238.585 20.2178C238.234 20.2178 237.922 20.3044 237.648 20.4775C237.38 20.6462 237.165 20.8968 237.006 21.2295C236.851 21.5576 236.773 21.9609 236.773 22.4395V23.123C236.773 23.5833 236.851 23.9775 237.006 24.3057C237.161 24.6292 237.38 24.8799 237.662 25.0576C237.949 25.2308 238.289 25.3174 238.681 25.3174C238.986 25.3174 239.248 25.2741 239.467 25.1875C239.69 25.0964 239.87 24.9893 240.007 24.8662C240.144 24.7386 240.239 24.6178 240.294 24.5039L240.314 24.4561H241.928L241.914 24.5176C241.855 24.7591 241.745 25.0052 241.586 25.2559C241.431 25.502 241.219 25.7321 240.95 25.9463C240.686 26.1559 240.362 26.3268 239.979 26.459C239.597 26.5866 239.152 26.6504 238.646 26.6504ZM246.911 26.6504C246.159 26.6504 245.517 26.4954 244.983 26.1855C244.45 25.8757 244.042 25.429 243.76 24.8457C243.477 24.2624 243.336 23.5651 243.336 22.7539V22.7402C243.336 21.9336 243.477 21.2432 243.76 20.6689C244.042 20.0947 244.45 19.6549 244.983 19.3496C245.517 19.0397 246.157 18.8848 246.904 18.8848C247.547 18.8848 248.098 18.9964 248.559 19.2197C249.023 19.4385 249.39 19.7438 249.659 20.1357C249.933 20.5231 250.101 20.9766 250.165 21.4961V21.5234H248.559L248.552 21.5029C248.474 21.1383 248.297 20.8398 248.019 20.6074C247.745 20.375 247.376 20.2588 246.911 20.2588C246.524 20.2588 246.191 20.3568 245.913 20.5527C245.64 20.7487 245.43 21.0312 245.284 21.4004C245.138 21.7695 245.065 22.2161 245.065 22.7402V22.7539C245.065 23.2826 245.138 23.736 245.284 24.1143C245.435 24.488 245.646 24.7751 245.92 24.9756C246.193 25.1715 246.524 25.2695 246.911 25.2695C247.353 25.2695 247.709 25.1693 247.978 24.9688C248.251 24.7682 248.44 24.472 248.545 24.0801L248.559 24.0527L250.158 24.0459L250.151 24.1074C250.069 24.6133 249.892 25.0576 249.618 25.4404C249.349 25.8232 248.989 26.1217 248.538 26.3359C248.087 26.5456 247.545 26.6504 246.911 26.6504ZM253.822 26.623C253.353 26.623 252.931 26.5319 252.558 26.3496C252.188 26.1673 251.897 25.9098 251.683 25.5771C251.473 25.2399 251.368 24.8434 251.368 24.3877V24.374C251.368 23.932 251.478 23.5514 251.696 23.2324C251.915 22.9089 252.236 22.6559 252.66 22.4736C253.084 22.2913 253.599 22.1842 254.205 22.1523L256.967 21.9814V23.1025L254.444 23.2666C253.966 23.2939 253.613 23.3942 253.385 23.5674C253.157 23.7406 253.043 23.9821 253.043 24.292V24.3057C253.043 24.6247 253.164 24.873 253.405 25.0508C253.651 25.2285 253.964 25.3174 254.342 25.3174C254.684 25.3174 254.989 25.249 255.258 25.1123C255.527 24.9756 255.739 24.791 255.894 24.5586C256.049 24.3216 256.126 24.055 256.126 23.7588V21.3936C256.126 21.0199 256.007 20.735 255.771 20.5391C255.534 20.3385 255.183 20.2383 254.718 20.2383C254.33 20.2383 254.014 20.3066 253.768 20.4434C253.521 20.5755 253.355 20.7646 253.269 21.0107L253.262 21.0381H251.655L251.662 20.9766C251.717 20.5573 251.881 20.1904 252.154 19.876C252.428 19.5615 252.79 19.3177 253.241 19.1445C253.692 18.9714 254.212 18.8848 254.8 18.8848C255.447 18.8848 255.994 18.985 256.44 19.1855C256.887 19.3815 257.227 19.6686 257.459 20.0469C257.691 20.4206 257.808 20.8695 257.808 21.3936V26.5H256.126V25.4746H256.01C255.873 25.7116 255.695 25.9167 255.477 26.0898C255.262 26.263 255.016 26.3952 254.738 26.4863C254.46 26.5775 254.155 26.623 253.822 26.623ZM262.675 26.6504C262.041 26.6504 261.494 26.5615 261.034 26.3838C260.578 26.2015 260.218 25.9508 259.954 25.6318C259.69 25.3083 259.533 24.9346 259.482 24.5107V24.4971H261.171L261.178 24.5107C261.269 24.7705 261.44 24.9824 261.69 25.1465C261.941 25.3105 262.278 25.3926 262.702 25.3926C262.985 25.3926 263.233 25.3538 263.447 25.2764C263.661 25.1943 263.83 25.0827 263.953 24.9414C264.076 24.8001 264.138 24.6361 264.138 24.4492V24.4355C264.138 24.2168 264.049 24.0345 263.871 23.8887C263.693 23.7383 263.399 23.6175 262.989 23.5264L261.779 23.2529C261.305 23.1481 260.913 23.0023 260.604 22.8154C260.294 22.6286 260.061 22.3984 259.906 22.125C259.756 21.8516 259.681 21.5326 259.681 21.168V21.1611C259.681 20.71 259.806 20.3135 260.057 19.9717C260.312 19.6299 260.665 19.3633 261.116 19.1719C261.567 18.9805 262.087 18.8848 262.675 18.8848C263.281 18.8848 263.803 18.9759 264.24 19.1582C264.678 19.3405 265.02 19.5911 265.266 19.9102C265.512 20.2292 265.653 20.5915 265.689 20.9971V21.0107H264.09L264.083 20.9902C264.019 20.7533 263.867 20.5527 263.625 20.3887C263.388 20.2201 263.069 20.1357 262.668 20.1357C262.417 20.1357 262.192 20.1745 261.991 20.252C261.795 20.3294 261.64 20.4388 261.526 20.5801C261.417 20.7168 261.362 20.8786 261.362 21.0654V21.0723C261.362 21.2181 261.399 21.3457 261.472 21.4551C261.549 21.5645 261.67 21.6602 261.834 21.7422C261.998 21.8242 262.215 21.8971 262.483 21.9609L263.693 22.2275C264.427 22.3916 264.969 22.6354 265.32 22.959C265.671 23.2826 265.847 23.7178 265.847 24.2646V24.2783C265.847 24.7523 265.71 25.167 265.437 25.5225C265.163 25.8779 264.787 26.1559 264.309 26.3564C263.83 26.5524 263.285 26.6504 262.675 26.6504ZM270.461 26.5342C269.604 26.5342 268.987 26.377 268.608 26.0625C268.23 25.748 268.041 25.2331 268.041 24.5176V20.3477H266.879V19.0283H268.041V17.1963H269.771V19.0283H271.343V20.3477H269.771V24.1143C269.771 24.4834 269.848 24.7546 270.003 24.9277C270.162 25.0964 270.418 25.1807 270.769 25.1807C270.892 25.1807 270.992 25.1784 271.069 25.1738C271.151 25.1647 271.243 25.1556 271.343 25.1465V26.459C271.224 26.4818 271.088 26.5 270.933 26.5137C270.782 26.5273 270.625 26.5342 270.461 26.5342ZM273.065 26.5V19.0283H274.761V26.5H273.065ZM273.92 17.7773C273.642 17.7773 273.403 17.6794 273.202 17.4834C273.002 17.2874 272.901 17.0527 272.901 16.7793C272.901 16.4967 273.002 16.2598 273.202 16.0684C273.403 15.8724 273.642 15.7744 273.92 15.7744C274.198 15.7744 274.435 15.8724 274.631 16.0684C274.831 16.2598 274.932 16.4967 274.932 16.7793C274.932 17.0527 274.831 17.2874 274.631 17.4834C274.435 17.6794 274.198 17.7773 273.92 17.7773ZM276.859 26.5V19.0283H278.562V20.1768H278.678C278.855 19.7712 279.124 19.4544 279.484 19.2266C279.844 18.9987 280.293 18.8848 280.831 18.8848C281.665 18.8848 282.303 19.1263 282.745 19.6094C283.187 20.0924 283.408 20.7783 283.408 21.667V26.5H281.706V22.0635C281.706 21.4801 281.583 21.0426 281.337 20.751C281.095 20.4593 280.717 20.3135 280.202 20.3135C279.865 20.3135 279.573 20.3887 279.327 20.5391C279.081 20.6895 278.892 20.9014 278.76 21.1748C278.628 21.4482 278.562 21.7718 278.562 22.1455V26.5H276.859ZM288.631 29.125C287.975 29.125 287.407 29.0384 286.929 28.8652C286.455 28.6921 286.081 28.446 285.808 28.127C285.534 27.8125 285.368 27.4456 285.309 27.0264L285.315 27.0059H287.011L287.024 27.0264C287.079 27.2633 287.245 27.457 287.523 27.6074C287.806 27.7624 288.184 27.8398 288.658 27.8398C289.242 27.8398 289.693 27.71 290.012 27.4502C290.335 27.1904 290.497 26.8213 290.497 26.3428V24.9072H290.381C290.24 25.1761 290.055 25.404 289.827 25.5908C289.604 25.7777 289.346 25.9189 289.055 26.0146C288.768 26.1058 288.451 26.1514 288.104 26.1514C287.476 26.1514 286.931 26.001 286.471 25.7002C286.01 25.3949 285.655 24.9733 285.404 24.4355C285.158 23.8978 285.035 23.2757 285.035 22.5693V22.5557C285.035 21.8356 285.16 21.2021 285.411 20.6553C285.662 20.1084 286.017 19.68 286.478 19.3701C286.942 19.0602 287.496 18.9053 288.139 18.9053C288.485 18.9053 288.802 18.96 289.089 19.0693C289.381 19.1787 289.636 19.3337 289.854 19.5342C290.078 19.7347 290.26 19.9762 290.401 20.2588H290.49V19.0283H292.192V26.3154C292.192 26.8896 292.047 27.3864 291.755 27.8057C291.468 28.2295 291.058 28.5553 290.524 28.7832C289.991 29.0111 289.36 29.125 288.631 29.125ZM288.631 24.7979C289.023 24.7979 289.36 24.7044 289.643 24.5176C289.925 24.3262 290.142 24.0641 290.292 23.7314C290.447 23.3988 290.524 23.0114 290.524 22.5693V22.5557C290.524 22.1136 290.447 21.7262 290.292 21.3936C290.142 21.0563 289.925 20.7943 289.643 20.6074C289.36 20.416 289.023 20.3203 288.631 20.3203C288.234 20.3203 287.897 20.416 287.619 20.6074C287.346 20.7943 287.136 21.0563 286.99 21.3936C286.849 21.7262 286.778 22.1136 286.778 22.5557V22.5693C286.778 23.0068 286.849 23.3942 286.99 23.7314C287.136 24.0641 287.346 24.3262 287.619 24.5176C287.897 24.7044 288.234 24.7979 288.631 24.7979Z" fill="#03234D"/>
<path fill-rule="evenodd" clip-rule="evenodd" d="M317.815 19.7923L312.296 25.3654C312.135 25.5269 311.865 25.5269 311.704 25.3654L306.185 19.7923C306.023 19.6307 306.023 19.3615 306.185 19.2L306.777 18.6077C306.938 18.4461 307.208 18.4461 307.369 18.6077L311.704 22.9961C311.865 23.1577 312.135 23.1577 312.296 22.9961L316.631 18.6077C316.792 18.4461 317.062 18.4461 317.223 18.6077L317.815 19.2C317.95 19.3884 317.95 19.6307 317.815 19.7923Z" fill="#5C5C5C"/>
<rect x="200" y="38" width="134" height="3" fill="white"/>
<rect width="144" height="32" transform="translate(334 6)" fill="white"/>
<path d="M351.469 26.7461C350.503 26.7461 349.671 26.5365 348.974 26.1172C348.281 25.6934 347.745 25.0941 347.367 24.3193C346.989 23.5446 346.8 22.6286 346.8 21.5713V21.5576C346.8 20.4958 346.989 19.5798 347.367 18.8096C347.75 18.0348 348.29 17.4378 348.987 17.0186C349.689 16.5993 350.516 16.3896 351.469 16.3896C352.426 16.3896 353.253 16.5993 353.95 17.0186C354.647 17.4378 355.185 18.0348 355.563 18.8096C355.942 19.5843 356.131 20.5003 356.131 21.5576V21.5713C356.131 22.6286 355.942 23.5446 355.563 24.3193C355.19 25.0941 354.654 25.6934 353.957 26.1172C353.26 26.5365 352.43 26.7461 351.469 26.7461ZM351.469 25.2217C352.057 25.2217 352.565 25.0713 352.993 24.7705C353.422 24.4697 353.752 24.0459 353.984 23.499C354.221 22.9521 354.34 22.3096 354.34 21.5713V21.5576C354.34 20.8148 354.221 20.1722 353.984 19.6299C353.752 19.083 353.422 18.6615 352.993 18.3652C352.565 18.0645 352.057 17.9141 351.469 17.9141C350.885 17.9141 350.377 18.0645 349.944 18.3652C349.516 18.6615 349.183 19.083 348.946 19.6299C348.714 20.1722 348.598 20.8148 348.598 21.5576V21.5713C348.598 22.3096 348.712 22.9521 348.939 23.499C349.172 24.0459 349.502 24.4697 349.931 24.7705C350.364 25.0713 350.876 25.2217 351.469 25.2217ZM357.977 28.9814V19.0283H359.679V20.1973H359.795C359.932 19.9284 360.109 19.6982 360.328 19.5068C360.551 19.3154 360.809 19.1673 361.101 19.0625C361.392 18.9577 361.714 18.9053 362.064 18.9053C362.689 18.9053 363.229 19.0625 363.685 19.377C364.145 19.6914 364.5 20.138 364.751 20.7168C365.006 21.291 365.134 21.9723 365.134 22.7607V22.7744C365.134 23.5674 365.008 24.251 364.758 24.8252C364.507 25.3994 364.152 25.8438 363.691 26.1582C363.236 26.4681 362.693 26.623 362.064 26.623C361.723 26.623 361.404 26.5706 361.107 26.4658C360.811 26.3564 360.551 26.2038 360.328 26.0078C360.105 25.8118 359.927 25.5794 359.795 25.3105H359.679V28.9814H357.977ZM361.531 25.1875C361.919 25.1875 362.251 25.0918 362.529 24.9004C362.807 24.7044 363.021 24.4264 363.172 24.0664C363.322 23.7018 363.397 23.2712 363.397 22.7744V22.7607C363.397 22.2549 363.322 21.8219 363.172 21.4619C363.021 21.1019 362.807 20.8262 362.529 20.6348C362.251 20.4388 361.919 20.3408 361.531 20.3408C361.144 20.3408 360.809 20.4388 360.526 20.6348C360.248 20.8262 360.032 21.1019 359.877 21.4619C359.727 21.8219 359.651 22.2526 359.651 22.7539V22.7676C359.651 23.2689 359.727 23.7018 359.877 24.0664C360.032 24.4264 360.251 24.7044 360.533 24.9004C360.816 25.0918 361.148 25.1875 361.531 25.1875ZM366.85 28.9814V19.0283H368.552V20.1973H368.668C368.805 19.9284 368.982 19.6982 369.201 19.5068C369.424 19.3154 369.682 19.1673 369.974 19.0625C370.265 18.9577 370.587 18.9053 370.938 18.9053C371.562 18.9053 372.102 19.0625 372.558 19.377C373.018 19.6914 373.373 20.138 373.624 20.7168C373.879 21.291 374.007 21.9723 374.007 22.7607V22.7744C374.007 23.5674 373.882 24.251 373.631 24.8252C373.38 25.3994 373.025 25.8438 372.564 26.1582C372.109 26.4681 371.566 26.623 370.938 26.623C370.596 26.623 370.277 26.5706 369.98 26.4658C369.684 26.3564 369.424 26.2038 369.201 26.0078C368.978 25.8118 368.8 25.5794 368.668 25.3105H368.552V28.9814H366.85ZM370.404 25.1875C370.792 25.1875 371.124 25.0918 371.402 24.9004C371.68 24.7044 371.895 24.4264 372.045 24.0664C372.195 23.7018 372.271 23.2712 372.271 22.7744V22.7607C372.271 22.2549 372.195 21.8219 372.045 21.4619C371.895 21.1019 371.68 20.8262 371.402 20.6348C371.124 20.4388 370.792 20.3408 370.404 20.3408C370.017 20.3408 369.682 20.4388 369.399 20.6348C369.121 20.8262 368.905 21.1019 368.75 21.4619C368.6 21.8219 368.524 22.2526 368.524 22.7539V22.7676C368.524 23.2689 368.6 23.7018 368.75 24.0664C368.905 24.4264 369.124 24.7044 369.406 24.9004C369.689 25.0918 370.021 25.1875 370.404 25.1875ZM378.949 26.6504C378.206 26.6504 377.566 26.4954 377.028 26.1855C376.491 25.8711 376.076 25.4245 375.784 24.8457C375.497 24.2669 375.354 23.5742 375.354 22.7676V22.7539C375.354 21.9564 375.499 21.2682 375.791 20.6895C376.083 20.1061 376.495 19.6595 377.028 19.3496C377.566 19.0397 378.206 18.8848 378.949 18.8848C379.692 18.8848 380.33 19.0397 380.863 19.3496C381.401 19.6595 381.816 20.1038 382.107 20.6826C382.399 21.2614 382.545 21.9518 382.545 22.7539V22.7676C382.545 23.5742 382.399 24.2669 382.107 24.8457C381.82 25.4245 381.408 25.8711 380.87 26.1855C380.337 26.4954 379.697 26.6504 378.949 26.6504ZM378.949 25.2695C379.341 25.2695 379.674 25.1715 379.947 24.9756C380.225 24.7751 380.437 24.4902 380.583 24.1211C380.729 23.7474 380.802 23.2985 380.802 22.7744V22.7607C380.802 22.2321 380.729 21.7832 380.583 21.4141C380.437 21.0404 380.225 20.7555 379.947 20.5596C379.674 20.359 379.341 20.2588 378.949 20.2588C378.557 20.2588 378.222 20.359 377.944 20.5596C377.666 20.7555 377.454 21.0404 377.309 21.4141C377.163 21.7832 377.09 22.2321 377.09 22.7607V22.7744C377.09 23.2985 377.163 23.7474 377.309 24.1211C377.454 24.4948 377.664 24.7796 377.938 24.9756C378.215 25.1715 378.553 25.2695 378.949 25.2695ZM384.254 26.5V19.0283H385.956V20.1768H386.072C386.2 19.7757 386.428 19.4635 386.756 19.2402C387.089 19.0169 387.501 18.9053 387.993 18.9053C388.121 18.9053 388.246 18.9144 388.369 18.9326C388.497 18.9463 388.602 18.9645 388.684 18.9873V20.5117C388.547 20.4798 388.408 20.457 388.267 20.4434C388.13 20.4251 387.986 20.416 387.836 20.416C387.458 20.416 387.127 20.4867 386.845 20.6279C386.562 20.7692 386.343 20.972 386.188 21.2363C386.034 21.4961 385.956 21.8037 385.956 22.1592V26.5H384.254ZM393.168 26.5342C392.311 26.5342 391.694 26.377 391.315 26.0625C390.937 25.748 390.748 25.2331 390.748 24.5176V20.3477H389.586V19.0283H390.748V17.1963H392.478V19.0283H394.05V20.3477H392.478V24.1143C392.478 24.4834 392.555 24.7546 392.71 24.9277C392.869 25.0964 393.125 25.1807 393.476 25.1807C393.599 25.1807 393.699 25.1784 393.776 25.1738C393.858 25.1647 393.95 25.1556 394.05 25.1465V26.459C393.931 26.4818 393.795 26.5 393.64 26.5137C393.489 26.5273 393.332 26.5342 393.168 26.5342ZM398.227 26.6504C397.671 26.6504 397.203 26.5433 396.825 26.3291C396.447 26.1104 396.162 25.7936 395.971 25.3789C395.779 24.9596 395.684 24.4538 395.684 23.8613V19.0283H397.386V23.4717C397.386 24.0505 397.5 24.4857 397.728 24.7773C397.955 25.069 398.327 25.2148 398.842 25.2148C399.115 25.2148 399.357 25.1738 399.566 25.0918C399.781 25.0052 399.958 24.8822 400.1 24.7227C400.241 24.5632 400.348 24.3717 400.421 24.1484C400.494 23.9206 400.53 23.6654 400.53 23.3828V19.0283H402.232V26.5H400.53V25.3652H400.414C400.3 25.6296 400.141 25.8597 399.936 26.0557C399.73 26.2471 399.484 26.3952 399.197 26.5C398.91 26.6003 398.587 26.6504 398.227 26.6504ZM404.311 26.5V19.0283H406.013V20.1768H406.129C406.307 19.7712 406.576 19.4544 406.936 19.2266C407.296 18.9987 407.744 18.8848 408.282 18.8848C409.116 18.8848 409.754 19.1263 410.196 19.6094C410.638 20.0924 410.859 20.7783 410.859 21.667V26.5H409.157V22.0635C409.157 21.4801 409.034 21.0426 408.788 20.751C408.547 20.4593 408.168 20.3135 407.653 20.3135C407.316 20.3135 407.024 20.3887 406.778 20.5391C406.532 20.6895 406.343 20.9014 406.211 21.1748C406.079 21.4482 406.013 21.7718 406.013 22.1455V26.5H404.311ZM412.89 26.5V19.0283H414.585V26.5H412.89ZM413.744 17.7773C413.466 17.7773 413.227 17.6794 413.026 17.4834C412.826 17.2874 412.726 17.0527 412.726 16.7793C412.726 16.4967 412.826 16.2598 413.026 16.0684C413.227 15.8724 413.466 15.7744 413.744 15.7744C414.022 15.7744 414.259 15.8724 414.455 16.0684C414.656 16.2598 414.756 16.4967 414.756 16.7793C414.756 17.0527 414.656 17.2874 414.455 17.4834C414.259 17.6794 414.022 17.7773 413.744 17.7773ZM419.623 26.5342C418.766 26.5342 418.149 26.377 417.771 26.0625C417.392 25.748 417.203 25.2331 417.203 24.5176V20.3477H416.041V19.0283H417.203V17.1963H418.933V19.0283H420.505V20.3477H418.933V24.1143C418.933 24.4834 419.01 24.7546 419.165 24.9277C419.325 25.0964 419.58 25.1807 419.931 25.1807C420.054 25.1807 420.154 25.1784 420.231 25.1738C420.313 25.1647 420.405 25.1556 420.505 25.1465V26.459C420.386 26.4818 420.25 26.5 420.095 26.5137C419.944 26.5273 419.787 26.5342 419.623 26.5342ZM425.338 26.6504C424.595 26.6504 423.957 26.4932 423.424 26.1787C422.895 25.8643 422.487 25.4176 422.2 24.8389C421.913 24.2601 421.77 23.5742 421.77 22.7812V22.7744C421.77 21.9906 421.911 21.307 422.193 20.7236C422.48 20.1403 422.886 19.6891 423.41 19.3701C423.934 19.0465 424.549 18.8848 425.256 18.8848C425.967 18.8848 426.577 19.042 427.088 19.3564C427.603 19.6663 427.999 20.1016 428.277 20.6621C428.555 21.2227 428.694 21.8789 428.694 22.6309V23.1914H422.624V22.0498H427.86L427.054 23.1162V22.4395C427.054 21.9427 426.979 21.5303 426.828 21.2021C426.678 20.874 426.468 20.6279 426.199 20.4639C425.935 20.2998 425.627 20.2178 425.276 20.2178C424.925 20.2178 424.613 20.3044 424.34 20.4775C424.071 20.6462 423.857 20.8968 423.697 21.2295C423.542 21.5576 423.465 21.9609 423.465 22.4395V23.123C423.465 23.5833 423.542 23.9775 423.697 24.3057C423.852 24.6292 424.071 24.8799 424.354 25.0576C424.641 25.2308 424.98 25.3174 425.372 25.3174C425.677 25.3174 425.939 25.2741 426.158 25.1875C426.382 25.0964 426.562 24.9893 426.698 24.8662C426.835 24.7386 426.931 24.6178 426.985 24.5039L427.006 24.4561H428.619L428.605 24.5176C428.546 24.7591 428.437 25.0052 428.277 25.2559C428.122 25.502 427.91 25.7321 427.642 25.9463C427.377 26.1559 427.054 26.3268 426.671 26.459C426.288 26.5866 425.844 26.6504 425.338 26.6504ZM433.22 26.6504C432.586 26.6504 432.039 26.5615 431.579 26.3838C431.123 26.2015 430.763 25.9508 430.499 25.6318C430.235 25.3083 430.077 24.9346 430.027 24.5107V24.4971H431.716L431.723 24.5107C431.814 24.7705 431.985 24.9824 432.235 25.1465C432.486 25.3105 432.823 25.3926 433.247 25.3926C433.53 25.3926 433.778 25.3538 433.992 25.2764C434.206 25.1943 434.375 25.0827 434.498 24.9414C434.621 24.8001 434.683 24.6361 434.683 24.4492V24.4355C434.683 24.2168 434.594 24.0345 434.416 23.8887C434.238 23.7383 433.944 23.6175 433.534 23.5264L432.324 23.2529C431.85 23.1481 431.458 23.0023 431.148 22.8154C430.839 22.6286 430.606 22.3984 430.451 22.125C430.301 21.8516 430.226 21.5326 430.226 21.168V21.1611C430.226 20.71 430.351 20.3135 430.602 19.9717C430.857 19.6299 431.21 19.3633 431.661 19.1719C432.112 18.9805 432.632 18.8848 433.22 18.8848C433.826 18.8848 434.348 18.9759 434.785 19.1582C435.223 19.3405 435.564 19.5911 435.811 19.9102C436.057 20.2292 436.198 20.5915 436.234 20.9971V21.0107H434.635L434.628 20.9902C434.564 20.7533 434.411 20.5527 434.17 20.3887C433.933 20.2201 433.614 20.1357 433.213 20.1357C432.962 20.1357 432.737 20.1745 432.536 20.252C432.34 20.3294 432.185 20.4388 432.071 20.5801C431.962 20.7168 431.907 20.8786 431.907 21.0654V21.0723C431.907 21.2181 431.944 21.3457 432.017 21.4551C432.094 21.5645 432.215 21.6602 432.379 21.7422C432.543 21.8242 432.759 21.8971 433.028 21.9609L434.238 22.2275C434.972 22.3916 435.514 22.6354 435.865 22.959C436.216 23.2826 436.392 23.7178 436.392 24.2646V24.2783C436.392 24.7523 436.255 25.167 435.981 25.5225C435.708 25.8779 435.332 26.1559 434.854 26.3564C434.375 26.5524 433.83 26.6504 433.22 26.6504Z" fill="#0250D9"/>
<path fill-rule="evenodd" clip-rule="evenodd" d="M461.815 19.7923L456.296 25.3654C456.135 25.5269 455.865 25.5269 455.704 25.3654L450.185 19.7923C450.023 19.6307 450.023 19.3615 450.185 19.2L450.777 18.6077C450.938 18.4461 451.208 18.4461 451.369 18.6077L455.704 22.9961C455.865 23.1577 456.135 23.1577 456.296 22.9961L460.631 18.6077C460.792 18.4461 461.062 18.4461 461.223 18.6077L461.815 19.2C461.95 19.3884 461.95 19.6307 461.815 19.7923Z" fill="#0250D9"/>
<path d="M334 39.5C334 38.6716 334.672 38 335.5 38H476.5C477.328 38 478 38.6716 478 39.5C478 40.3284 477.328 41 476.5 41H335.5C334.672 41 334 40.3284 334 39.5Z" fill="#0250D9"/>
<rect width="151" height="32" transform="translate(478 6)" fill="white"/>
<path d="M490.485 26.5L493.985 16.6357H495.448V18.4678H494.922L492.331 26.5H490.485ZM492.249 23.9502L492.707 22.5898H497.232L497.69 23.9502H492.249ZM497.629 26.5L495.038 18.4678V16.6357H495.968L499.475 26.5H497.629ZM503.788 26.6504C503.036 26.6504 502.394 26.4954 501.86 26.1855C501.327 25.8757 500.919 25.429 500.637 24.8457C500.354 24.2624 500.213 23.5651 500.213 22.7539V22.7402C500.213 21.9336 500.354 21.2432 500.637 20.6689C500.919 20.0947 501.327 19.6549 501.86 19.3496C502.394 19.0397 503.034 18.8848 503.781 18.8848C504.424 18.8848 504.975 18.9964 505.436 19.2197C505.9 19.4385 506.267 19.7438 506.536 20.1357C506.81 20.5231 506.978 20.9766 507.042 21.4961V21.5234H505.436L505.429 21.5029C505.351 21.1383 505.174 20.8398 504.896 20.6074C504.622 20.375 504.253 20.2588 503.788 20.2588C503.401 20.2588 503.068 20.3568 502.79 20.5527C502.517 20.7487 502.307 21.0312 502.161 21.4004C502.015 21.7695 501.942 22.2161 501.942 22.7402V22.7539C501.942 23.2826 502.015 23.736 502.161 24.1143C502.312 24.488 502.523 24.7751 502.797 24.9756C503.07 25.1715 503.401 25.2695 503.788 25.2695C504.23 25.2695 504.586 25.1693 504.854 24.9688C505.128 24.7682 505.317 24.472 505.422 24.0801L505.436 24.0527L507.035 24.0459L507.028 24.1074C506.946 24.6133 506.769 25.0576 506.495 25.4404C506.226 25.8232 505.866 26.1217 505.415 26.3359C504.964 26.5456 504.422 26.6504 503.788 26.6504ZM511.868 26.6504C511.116 26.6504 510.474 26.4954 509.94 26.1855C509.407 25.8757 508.999 25.429 508.717 24.8457C508.434 24.2624 508.293 23.5651 508.293 22.7539V22.7402C508.293 21.9336 508.434 21.2432 508.717 20.6689C508.999 20.0947 509.407 19.6549 509.94 19.3496C510.474 19.0397 511.114 18.8848 511.861 18.8848C512.504 18.8848 513.055 18.9964 513.516 19.2197C513.98 19.4385 514.347 19.7438 514.616 20.1357C514.89 20.5231 515.058 20.9766 515.122 21.4961V21.5234H513.516L513.509 21.5029C513.431 21.1383 513.254 20.8398 512.976 20.6074C512.702 20.375 512.333 20.2588 511.868 20.2588C511.481 20.2588 511.148 20.3568 510.87 20.5527C510.597 20.7487 510.387 21.0312 510.241 21.4004C510.095 21.7695 510.022 22.2161 510.022 22.7402V22.7539C510.022 23.2826 510.095 23.736 510.241 24.1143C510.392 24.488 510.604 24.7751 510.877 24.9756C511.15 25.1715 511.481 25.2695 511.868 25.2695C512.31 25.2695 512.666 25.1693 512.935 24.9688C513.208 24.7682 513.397 24.472 513.502 24.0801L513.516 24.0527L515.115 24.0459L515.108 24.1074C515.026 24.6133 514.849 25.0576 514.575 25.4404C514.306 25.8232 513.946 26.1217 513.495 26.3359C513.044 26.5456 512.502 26.6504 511.868 26.6504ZM519.969 26.6504C519.226 26.6504 518.586 26.4954 518.048 26.1855C517.51 25.8711 517.095 25.4245 516.804 24.8457C516.517 24.2669 516.373 23.5742 516.373 22.7676V22.7539C516.373 21.9564 516.519 21.2682 516.811 20.6895C517.102 20.1061 517.515 19.6595 518.048 19.3496C518.586 19.0397 519.226 18.8848 519.969 18.8848C520.712 18.8848 521.35 19.0397 521.883 19.3496C522.421 19.6595 522.835 20.1038 523.127 20.6826C523.419 21.2614 523.564 21.9518 523.564 22.7539V22.7676C523.564 23.5742 523.419 24.2669 523.127 24.8457C522.84 25.4245 522.427 25.8711 521.89 26.1855C521.356 26.4954 520.716 26.6504 519.969 26.6504ZM519.969 25.2695C520.361 25.2695 520.693 25.1715 520.967 24.9756C521.245 24.7751 521.457 24.4902 521.603 24.1211C521.748 23.7474 521.821 23.2985 521.821 22.7744V22.7607C521.821 22.2321 521.748 21.7832 521.603 21.4141C521.457 21.0404 521.245 20.7555 520.967 20.5596C520.693 20.359 520.361 20.2588 519.969 20.2588C519.577 20.2588 519.242 20.359 518.964 20.5596C518.686 20.7555 518.474 21.0404 518.328 21.4141C518.182 21.7832 518.109 22.2321 518.109 22.7607V22.7744C518.109 23.2985 518.182 23.7474 518.328 24.1211C518.474 24.4948 518.684 24.7796 518.957 24.9756C519.235 25.1715 519.572 25.2695 519.969 25.2695ZM527.748 26.6504C527.192 26.6504 526.725 26.5433 526.347 26.3291C525.968 26.1104 525.684 25.7936 525.492 25.3789C525.301 24.9596 525.205 24.4538 525.205 23.8613V19.0283H526.907V23.4717C526.907 24.0505 527.021 24.4857 527.249 24.7773C527.477 25.069 527.848 25.2148 528.363 25.2148C528.637 25.2148 528.878 25.1738 529.088 25.0918C529.302 25.0052 529.48 24.8822 529.621 24.7227C529.762 24.5632 529.869 24.3717 529.942 24.1484C530.015 23.9206 530.052 23.6654 530.052 23.3828V19.0283H531.754V26.5H530.052V25.3652H529.936C529.822 25.6296 529.662 25.8597 529.457 26.0557C529.252 26.2471 529.006 26.3952 528.719 26.5C528.432 26.6003 528.108 26.6504 527.748 26.6504ZM533.832 26.5V19.0283H535.534V20.1768H535.65C535.828 19.7712 536.097 19.4544 536.457 19.2266C536.817 18.9987 537.266 18.8848 537.804 18.8848C538.638 18.8848 539.276 19.1263 539.718 19.6094C540.16 20.0924 540.381 20.7783 540.381 21.667V26.5H538.679V22.0635C538.679 21.4801 538.556 21.0426 538.31 20.751C538.068 20.4593 537.69 20.3135 537.175 20.3135C536.838 20.3135 536.546 20.3887 536.3 20.5391C536.054 20.6895 535.865 20.9014 535.732 21.1748C535.6 21.4482 535.534 21.7718 535.534 22.1455V26.5H533.832ZM545.33 26.5342C544.473 26.5342 543.856 26.377 543.478 26.0625C543.099 25.748 542.91 25.2331 542.91 24.5176V20.3477H541.748V19.0283H542.91V17.1963H544.64V19.0283H546.212V20.3477H544.64V24.1143C544.64 24.4834 544.717 24.7546 544.872 24.9277C545.032 25.0964 545.287 25.1807 545.638 25.1807C545.761 25.1807 545.861 25.1784 545.938 25.1738C546.021 25.1647 546.112 25.1556 546.212 25.1465V26.459C546.093 26.4818 545.957 26.5 545.802 26.5137C545.651 26.5273 545.494 26.5342 545.33 26.5342ZM552.706 23.2393V21.8174H555.331C555.965 21.8174 556.457 21.6556 556.808 21.332C557.159 21.0039 557.334 20.5436 557.334 19.9512V19.9375C557.334 19.3405 557.159 18.8802 556.808 18.5566C556.457 18.2331 555.965 18.0713 555.331 18.0713H552.706V16.6357H555.762C556.432 16.6357 557.017 16.7725 557.519 17.0459C558.02 17.3193 558.412 17.7044 558.694 18.2012C558.977 18.6934 559.118 19.2699 559.118 19.9307V19.9443C559.118 20.6006 558.977 21.1771 558.694 21.6738C558.412 22.166 558.02 22.5511 557.519 22.8291C557.017 23.1025 556.432 23.2393 555.762 23.2393H552.706ZM551.824 26.5V16.6357H553.588V26.5H551.824ZM560.957 26.5V16.1367H562.659V26.5H560.957ZM566.836 26.623C566.367 26.623 565.945 26.5319 565.571 26.3496C565.202 26.1673 564.91 25.9098 564.696 25.5771C564.487 25.2399 564.382 24.8434 564.382 24.3877V24.374C564.382 23.932 564.491 23.5514 564.71 23.2324C564.929 22.9089 565.25 22.6559 565.674 22.4736C566.098 22.2913 566.613 22.1842 567.219 22.1523L569.98 21.9814V23.1025L567.458 23.2666C566.979 23.2939 566.626 23.3942 566.398 23.5674C566.171 23.7406 566.057 23.9821 566.057 24.292V24.3057C566.057 24.6247 566.177 24.873 566.419 25.0508C566.665 25.2285 566.977 25.3174 567.355 25.3174C567.697 25.3174 568.003 25.249 568.271 25.1123C568.54 24.9756 568.752 24.791 568.907 24.5586C569.062 24.3216 569.14 24.055 569.14 23.7588V21.3936C569.14 21.0199 569.021 20.735 568.784 20.5391C568.547 20.3385 568.196 20.2383 567.731 20.2383C567.344 20.2383 567.027 20.3066 566.781 20.4434C566.535 20.5755 566.369 20.7646 566.282 21.0107L566.275 21.0381H564.669L564.676 20.9766C564.73 20.5573 564.895 20.1904 565.168 19.876C565.441 19.5615 565.804 19.3177 566.255 19.1445C566.706 18.9714 567.226 18.8848 567.813 18.8848C568.461 18.8848 569.007 18.985 569.454 19.1855C569.901 19.3815 570.24 19.6686 570.473 20.0469C570.705 20.4206 570.821 20.8695 570.821 21.3936V26.5H569.14V25.4746H569.023C568.887 25.7116 568.709 25.9167 568.49 26.0898C568.276 26.263 568.03 26.3952 567.752 26.4863C567.474 26.5775 567.169 26.623 566.836 26.623ZM572.865 26.5V19.0283H574.567V20.1768H574.684C574.861 19.7712 575.13 19.4544 575.49 19.2266C575.85 18.9987 576.299 18.8848 576.837 18.8848C577.671 18.8848 578.309 19.1263 578.751 19.6094C579.193 20.0924 579.414 20.7783 579.414 21.667V26.5H577.712V22.0635C577.712 21.4801 577.589 21.0426 577.343 20.751C577.101 20.4593 576.723 20.3135 576.208 20.3135C575.871 20.3135 575.579 20.3887 575.333 20.5391C575.087 20.6895 574.898 20.9014 574.766 21.1748C574.633 21.4482 574.567 21.7718 574.567 22.1455V26.5H572.865ZM584.247 26.6504C583.614 26.6504 583.067 26.5615 582.606 26.3838C582.151 26.2015 581.791 25.9508 581.526 25.6318C581.262 25.3083 581.105 24.9346 581.055 24.5107V24.4971H582.743L582.75 24.5107C582.841 24.7705 583.012 24.9824 583.263 25.1465C583.513 25.3105 583.851 25.3926 584.274 25.3926C584.557 25.3926 584.805 25.3538 585.02 25.2764C585.234 25.1943 585.402 25.0827 585.525 24.9414C585.648 24.8001 585.71 24.6361 585.71 24.4492V24.4355C585.71 24.2168 585.621 24.0345 585.443 23.8887C585.266 23.7383 584.972 23.6175 584.562 23.5264L583.352 23.2529C582.878 23.1481 582.486 23.0023 582.176 22.8154C581.866 22.6286 581.633 22.3984 581.479 22.125C581.328 21.8516 581.253 21.5326 581.253 21.168V21.1611C581.253 20.71 581.378 20.3135 581.629 19.9717C581.884 19.6299 582.237 19.3633 582.688 19.1719C583.14 18.9805 583.659 18.8848 584.247 18.8848C584.853 18.8848 585.375 18.9759 585.812 19.1582C586.25 19.3405 586.592 19.5911 586.838 19.9102C587.084 20.2292 587.225 20.5915 587.262 20.9971V21.0107H585.662L585.655 20.9902C585.591 20.7533 585.439 20.5527 585.197 20.3887C584.96 20.2201 584.641 20.1357 584.24 20.1357C583.99 20.1357 583.764 20.1745 583.563 20.252C583.368 20.3294 583.213 20.4388 583.099 20.5801C582.989 20.7168 582.935 20.8786 582.935 21.0654V21.0723C582.935 21.2181 582.971 21.3457 583.044 21.4551C583.121 21.5645 583.242 21.6602 583.406 21.7422C583.57 21.8242 583.787 21.8971 584.056 21.9609L585.266 22.2275C585.999 22.3916 586.542 22.6354 586.893 22.959C587.243 23.2826 587.419 23.7178 587.419 24.2646V24.2783C587.419 24.7523 587.282 25.167 587.009 25.5225C586.735 25.8779 586.359 26.1559 585.881 26.3564C585.402 26.5524 584.858 26.6504 584.247 26.6504Z" fill="#03234D"/>
<path fill-rule="evenodd" clip-rule="evenodd" d="M612.815 19.7923L607.296 25.3654C607.135 25.5269 606.865 25.5269 606.704 25.3654L601.185 19.7923C601.023 19.6307 601.023 19.3615 601.185 19.2L601.777 18.6077C601.938 18.4461 602.208 18.4461 602.369 18.6077L606.704 22.9961C606.865 23.1577 607.135 23.1577 607.296 22.9961L611.631 18.6077C611.792 18.4461 612.062 18.4461 612.223 18.6077L612.815 19.2C612.95 19.3884 612.95 19.6307 612.815 19.7923Z" fill="#5C5C5C"/>
<rect x="478" y="38" width="151" height="3" fill="white"/>
<path fill-rule="evenodd" clip-rule="evenodd" d="M1165.56 23.9929L1167.95 26.3887C1168.06 26.4964 1168.22 26.4964 1168.33 26.3887L1174.3 20.3857C1174.41 20.278 1174.41 20.1165 1174.3 20.0088L1171.93 17.6399C1171.83 17.5322 1171.67 17.5322 1171.56 17.6399L1165.56 23.6429C1165.45 23.7506 1165.45 23.9121 1165.56 23.9929ZM1172.71 16.5363C1172.61 16.644 1172.61 16.8055 1172.71 16.9132L1175.08 19.2821C1175.19 19.3897 1175.35 19.3897 1175.46 19.2821L1176.13 18.6091C1176.56 18.2053 1176.56 17.5592 1176.13 17.1285L1174.87 15.8633C1174.44 15.4326 1173.76 15.4326 1173.33 15.8633L1172.71 16.5363ZM1163.57 27.977C1163.51 28.2462 1163.75 28.4885 1164.02 28.4346L1166.96 27.7347C1167.06 27.7078 1167.14 27.654 1167.2 27.6001L1167.25 27.5463C1167.31 27.4925 1167.33 27.304 1167.23 27.1964L1164.8 24.7736C1164.7 24.6659 1164.51 24.6929 1164.45 24.7467L1164.4 24.8005C1164.32 24.8813 1164.29 24.9621 1164.27 25.0428L1163.57 27.977Z" fill="#0250D9"/>
</g>
<defs>
<filter id="filter0_ddd_9_164143" x="0.5" y="0" width="1211" height="44.9" filterUnits="userSpaceOnUse" color-interpolation-filters="sRGB">
<feFlood flood-opacity="0" result="BackgroundImageFix"/>
<feColorMatrix in="SourceAlpha" type="matrix" values="0 0 0 0 0 0 0 0 0 0 0 0 0 0 0 0 0 0 127 0" result="hardAlpha"/>
<feOffset/>
<feGaussianBlur stdDeviation="0.745"/>
<feComposite in2="hardAlpha" operator="out"/>
<feColorMatrix type="matrix" values="0 0 0 0 0 0 0 0 0 0 0 0 0 0 0 0 0 0 0.09 0"/>
<feBlend mode="normal" in2="BackgroundImageFix" result="effect1_dropShadow_9_164143"/>
<feColorMatrix in="SourceAlpha" type="matrix" values="0 0 0 0 0 0 0 0 0 0 0 0 0 0 0 0 0 0 127 0" result="hardAlpha"/>
<feOffset dy="1.4"/>
<feGaussianBlur stdDeviation="0.75"/>
<feComposite in2="hardAlpha" operator="out"/>
<feColorMatrix type="matrix" values="0 0 0 0 0 0 0 0 0 0 0 0 0 0 0 0 0 0 0.09 0"/>
<feBlend mode="normal" in2="effect1_dropShadow_9_164143" result="effect2_dropShadow_9_164143"/>
<feColorMatrix in="SourceAlpha" type="matrix" values="0 0 0 0 0 0 0 0 0 0 0 0 0 0 0 0 0 0 127 0" result="hardAlpha"/>
<feOffset dy="-1"/>
<feGaussianBlur stdDeviation="0.5"/>
<feComposite in2="hardAlpha" operator="out"/>
<feColorMatrix type="matrix" values="0 0 0 0 0 0 0 0 0 0 0 0 0 0 0 0 0 0 0.045 0"/>
<feBlend mode="normal" in2="effect2_dropShadow_9_164143" result="effect3_dropShadow_9_164143"/>
<feBlend mode="normal" in="SourceGraphic" in2="effect3_dropShadow_9_164143" result="shape"/>
</filter>
</defs>
</svg>
