<svg width="72" height="1080" viewBox="0 0 72 1080" fill="none" xmlns="http://www.w3.org/2000/svg">
<rect width="72" height="1080" fill="#002775"/>
<path d="M41.7606 39.9201C41.506 39.9201 41.2618 39.8189 41.0817 39.6389C40.9017 39.4589 40.8006 39.2147 40.8006 38.9601V33.2002H35.0406C34.786 33.2002 34.5418 33.099 34.3617 32.919C34.1817 32.739 34.0806 32.4948 34.0806 32.2402C34.0806 31.9856 34.1817 31.7414 34.3617 31.5614C34.5418 31.3814 34.786 31.2802 35.0406 31.2802H41.7606C42.0152 31.2802 42.2594 31.3814 42.4394 31.5614C42.6194 31.7414 42.7206 31.9856 42.7206 32.2402V38.9601C42.7206 39.2147 42.6194 39.4589 42.4394 39.6389C42.2594 39.8189 42.0152 39.9201 41.7606 39.9201Z" fill="white"/>
<path d="M24.9594 42.3196C24.7701 42.3188 24.5853 42.2621 24.4282 42.1566C24.271 42.051 24.1486 41.9014 24.0763 41.7265C24.0039 41.5516 23.9849 41.3592 24.0216 41.1735C24.0584 40.9878 24.1491 40.8171 24.2826 40.6829L29.5626 35.4029C29.7425 35.2241 29.9858 35.1238 30.2394 35.1238C30.493 35.1238 30.7363 35.2241 30.9162 35.4029L34.0794 38.5373L40.6026 32.043C40.7827 31.8629 41.027 31.7617 41.2818 31.7617C41.5365 31.7617 41.7808 31.8629 41.961 32.043C42.1411 32.2231 42.2423 32.4674 42.2423 32.7222C42.2423 32.9769 42.1411 33.2212 41.961 33.4014L34.785 40.5725C34.6051 40.7513 34.3618 40.8516 34.1082 40.8516C33.8546 40.8516 33.6113 40.7513 33.4314 40.5725L30.2394 37.4333L25.6314 42.0412C25.4526 42.2186 25.2112 42.3186 24.9594 42.3196Z" fill="white"/>
<path d="M47.04 49.9997H24.96C24.7054 49.9997 24.4612 49.8985 24.2812 49.7185C24.1011 49.5385 24 49.2943 24 49.0397V26.96C24 26.7054 24.1011 26.4612 24.2812 26.2812C24.4612 26.1011 24.7054 26 24.96 26H47.04C47.2946 26 47.5388 26.1011 47.7188 26.2812C47.8989 26.4612 48 26.7054 48 26.96V49.0397C48 49.2943 47.8989 49.5385 47.7188 49.7185C47.5388 49.8985 47.2946 49.9997 47.04 49.9997ZM25.92 48.0797H46.08V27.92H25.92V48.0797Z" fill="white"/>
<path d="M30.2393 49.9999C29.9847 49.9999 29.7405 49.8988 29.5605 49.7187C29.3804 49.5387 29.2793 49.2945 29.2793 49.0399V45.2C29.2793 44.9454 29.3804 44.7012 29.5605 44.5212C29.7405 44.3411 29.9847 44.24 30.2393 44.24C30.4939 44.24 30.7381 44.3411 30.9181 44.5212C31.0982 44.7012 31.1993 44.9454 31.1993 45.2V49.0399C31.1993 49.2945 31.0982 49.5387 30.9181 49.7187C30.7381 49.8988 30.4939 49.9999 30.2393 49.9999Z" fill="white"/>
<path d="M36.0003 49.9999C35.7457 49.9999 35.5015 49.8988 35.3215 49.7187C35.1414 49.5387 35.0403 49.2945 35.0403 49.0399V45.2C35.0403 44.9454 35.1414 44.7012 35.3215 44.5212C35.5015 44.3411 35.7457 44.24 36.0003 44.24C36.2549 44.24 36.4991 44.3411 36.6791 44.5212C36.8591 44.7012 36.9603 44.9454 36.9603 45.2V49.0399C36.9603 49.2945 36.8591 49.5387 36.6791 49.7187C36.4991 49.8988 36.2549 49.9999 36.0003 49.9999Z" fill="white"/>
<path d="M41.7613 49.9999C41.5067 49.9999 41.2625 49.8988 41.0824 49.7187C40.9024 49.5387 40.8013 49.2945 40.8013 49.0399V45.2C40.8013 44.9454 40.9024 44.7012 41.0824 44.5212C41.2625 44.3411 41.5067 44.24 41.7613 44.24C42.0159 44.24 42.2601 44.3411 42.4401 44.5212C42.6201 44.7012 42.7213 44.9454 42.7213 45.2V49.0399C42.7213 49.2945 42.6201 49.5387 42.4401 49.7187C42.2601 49.8988 42.0159 49.9999 41.7613 49.9999Z" fill="white"/>
<path d="M26.0537 71.1758C25.5068 71.1758 25.0316 71.0911 24.6279 70.9219C24.2275 70.7526 23.9118 70.5166 23.6807 70.2139C23.4495 69.9111 23.3193 69.5579 23.29 69.1543L23.2852 69.0859H24.5059L24.5107 69.1348C24.5303 69.3333 24.6084 69.5059 24.7451 69.6523C24.8851 69.7988 25.0706 69.9144 25.3018 69.999C25.5329 70.0804 25.7965 70.1211 26.0928 70.1211C26.376 70.1211 26.6266 70.0771 26.8447 69.9893C27.0628 69.9014 27.2337 69.7809 27.3574 69.6279C27.4811 69.4717 27.543 69.2926 27.543 69.0908V69.0859C27.543 68.832 27.4437 68.6253 27.2451 68.4658C27.0465 68.3031 26.7194 68.1729 26.2637 68.0752L25.5068 67.9189C24.7842 67.766 24.2585 67.5218 23.9297 67.1865C23.6042 66.848 23.4414 66.4167 23.4414 65.8926V65.8877C23.4414 65.4678 23.5521 65.0999 23.7734 64.7842C23.998 64.4684 24.3057 64.2227 24.6963 64.0469C25.0902 63.8678 25.541 63.7783 26.0488 63.7783C26.5697 63.7783 27.0205 63.8662 27.4014 64.042C27.7822 64.2145 28.0817 64.4505 28.2998 64.75C28.5179 65.0495 28.64 65.388 28.666 65.7656L28.6709 65.8291H27.4697L27.46 65.7705C27.4307 65.585 27.3542 65.4238 27.2305 65.2871C27.11 65.1471 26.9489 65.0365 26.7471 64.9551C26.5452 64.8737 26.3092 64.833 26.0391 64.833C25.7819 64.833 25.5524 64.8737 25.3506 64.9551C25.1488 65.0332 24.9893 65.1439 24.8721 65.2871C24.7581 65.4303 24.7012 65.6029 24.7012 65.8047V65.8096C24.7012 66.057 24.7972 66.262 24.9893 66.4248C25.1846 66.5876 25.502 66.7145 25.9414 66.8057L26.6982 66.9668C27.193 67.071 27.5951 67.2093 27.9043 67.3818C28.2135 67.5544 28.4398 67.7692 28.583 68.0264C28.7295 68.2803 28.8027 68.5863 28.8027 68.9443V68.9492C28.8027 69.4049 28.6904 69.7988 28.4658 70.1309C28.2445 70.4629 27.9271 70.7201 27.5137 70.9023C27.1035 71.0846 26.6169 71.1758 26.0537 71.1758ZM31.498 71.0879C31.1628 71.0879 30.8617 71.0228 30.5947 70.8926C30.3311 70.7624 30.1227 70.5785 29.9697 70.3408C29.82 70.0999 29.7451 69.8167 29.7451 69.4912V69.4814C29.7451 69.1657 29.8232 68.8939 29.9795 68.666C30.1357 68.4349 30.3652 68.2542 30.668 68.124C30.9707 67.9938 31.3385 67.9173 31.7715 67.8945L33.7441 67.7725V68.5732L31.9424 68.6904C31.6006 68.71 31.3483 68.7816 31.1855 68.9053C31.0228 69.029 30.9414 69.2015 30.9414 69.4229V69.4326C30.9414 69.6605 31.0277 69.8379 31.2002 69.9648C31.376 70.0918 31.599 70.1553 31.8691 70.1553C32.1133 70.1553 32.3314 70.1064 32.5234 70.0088C32.7155 69.9111 32.8669 69.7793 32.9775 69.6133C33.0882 69.444 33.1436 69.2536 33.1436 69.042V67.3525C33.1436 67.0856 33.0589 66.8822 32.8896 66.7422C32.7204 66.599 32.4697 66.5273 32.1377 66.5273C31.861 66.5273 31.6348 66.5762 31.459 66.6738C31.2832 66.7682 31.1644 66.9033 31.1025 67.0791L31.0977 67.0986H29.9502L29.9551 67.0547C29.9941 66.7552 30.1113 66.4932 30.3066 66.2686C30.502 66.0439 30.7607 65.8698 31.083 65.7461C31.4053 65.6224 31.7764 65.5605 32.1963 65.5605C32.6585 65.5605 33.0492 65.6322 33.3682 65.7754C33.6872 65.9154 33.9297 66.1204 34.0957 66.3906C34.2617 66.6576 34.3447 66.9782 34.3447 67.3525V71H33.1436V70.2676H33.0605C32.9629 70.4368 32.8359 70.5833 32.6797 70.707C32.5267 70.8307 32.3509 70.9251 32.1523 70.9902C31.9538 71.0553 31.7357 71.0879 31.498 71.0879ZM35.8535 71V63.5977H37.0693V71H35.8535ZM40.8828 71.1074C40.3522 71.1074 39.8965 70.9951 39.5156 70.7705C39.138 70.5459 38.8467 70.2269 38.6416 69.8135C38.4365 69.4001 38.334 68.9102 38.334 68.3438V68.3389C38.334 67.779 38.4349 67.2907 38.6367 66.874C38.8418 66.4574 39.1315 66.1351 39.5059 65.9072C39.8802 65.6761 40.3197 65.5605 40.8242 65.5605C41.332 65.5605 41.7682 65.6729 42.1328 65.8975C42.5007 66.1188 42.7839 66.4297 42.9824 66.8301C43.181 67.2305 43.2803 67.6992 43.2803 68.2363V68.6367H38.9443V67.8213H42.6846L42.1084 68.583V68.0996C42.1084 67.7448 42.0547 67.4502 41.9473 67.2158C41.8398 66.9814 41.6901 66.8057 41.498 66.6885C41.3092 66.5713 41.0895 66.5127 40.8389 66.5127C40.5882 66.5127 40.3652 66.5745 40.1699 66.6982C39.9779 66.8187 39.8249 66.9977 39.7109 67.2354C39.6003 67.4697 39.5449 67.7578 39.5449 68.0996V68.5879C39.5449 68.9167 39.6003 69.1982 39.7109 69.4326C39.8216 69.6637 39.9779 69.8428 40.1797 69.9697C40.3848 70.0934 40.6273 70.1553 40.9072 70.1553C41.1253 70.1553 41.3125 70.1243 41.4688 70.0625C41.6283 69.9974 41.7568 69.9209 41.8545 69.833C41.9521 69.7419 42.0205 69.6556 42.0596 69.5742L42.0742 69.54H43.2266L43.2168 69.584C43.1745 69.7565 43.0964 69.9323 42.9824 70.1113C42.8717 70.2871 42.7204 70.4515 42.5283 70.6045C42.3395 70.7542 42.1084 70.8763 41.835 70.9707C41.5615 71.0618 41.2441 71.1074 40.8828 71.1074ZM46.5127 71.1074C46.0602 71.1074 45.6696 71.0439 45.3408 70.917C45.0153 70.7868 44.7581 70.6077 44.5693 70.3799C44.3805 70.1488 44.2682 69.8818 44.2324 69.5791V69.5693H45.4385L45.4434 69.5791C45.5085 69.7646 45.6305 69.916 45.8096 70.0332C45.9886 70.1504 46.2295 70.209 46.5322 70.209C46.734 70.209 46.9115 70.1813 47.0645 70.126C47.2174 70.0674 47.3379 69.9876 47.4258 69.8867C47.5137 69.7858 47.5576 69.6686 47.5576 69.5352V69.5254C47.5576 69.3691 47.4941 69.2389 47.3672 69.1348C47.2402 69.0273 47.0303 68.9411 46.7373 68.876L45.873 68.6807C45.5345 68.6058 45.2546 68.5016 45.0332 68.3682C44.8118 68.2347 44.6458 68.0703 44.5352 67.875C44.4277 67.6797 44.374 67.4518 44.374 67.1914V67.1865C44.374 66.8643 44.4635 66.5811 44.6426 66.3369C44.8249 66.0928 45.0771 65.9023 45.3994 65.7656C45.7217 65.6289 46.0928 65.5605 46.5127 65.5605C46.9456 65.5605 47.3184 65.6257 47.6309 65.7559C47.9434 65.8861 48.1875 66.0651 48.3633 66.293C48.5391 66.5208 48.64 66.7796 48.666 67.0693V67.0791H47.5234L47.5186 67.0645C47.473 66.8952 47.3639 66.752 47.1914 66.6348C47.0221 66.5143 46.7943 66.4541 46.5078 66.4541C46.3288 66.4541 46.1676 66.4818 46.0244 66.5371C45.8844 66.5924 45.7738 66.6706 45.6924 66.7715C45.6143 66.8691 45.5752 66.9847 45.5752 67.1182V67.123C45.5752 67.2272 45.6012 67.3184 45.6533 67.3965C45.7087 67.4746 45.7949 67.543 45.9121 67.6016C46.0293 67.6602 46.1839 67.7122 46.376 67.7578L47.2402 67.9482C47.7643 68.0654 48.1517 68.2396 48.4023 68.4707C48.653 68.7018 48.7783 69.0127 48.7783 69.4033V69.4131C48.7783 69.7516 48.6807 70.0479 48.4854 70.3018C48.29 70.5557 48.0215 70.7542 47.6797 70.8975C47.3379 71.0374 46.9489 71.1074 46.5127 71.1074Z" fill="white"/>
<path d="M35.9464 112.191C35.7184 112.19 35.5 112.099 35.3392 111.937L25.6883 102.286C24.5855 101.125 23.9799 99.5792 24.0005 97.978C24.0211 96.3768 24.6664 94.847 25.7987 93.7147C26.931 92.5823 28.4608 91.9371 30.062 91.9165C31.6632 91.8959 33.2092 92.5015 34.3702 93.6043L35.9464 95.1805L37.5226 93.6043C38.6747 92.4546 40.2359 91.8088 41.8636 91.8088C43.4912 91.8088 45.0524 92.4546 46.2045 93.6043C47.3543 94.7564 48 96.3176 48 97.9453C48 99.5729 47.3543 101.134 46.2045 102.286L36.5536 111.937C36.3929 112.099 36.1745 112.19 35.9464 112.191ZM30.0293 93.5311C29.1556 93.5299 28.3012 93.7879 27.5743 94.2726C26.8474 94.7573 26.2807 95.4468 25.9459 96.2538C25.6111 97.0608 25.5233 97.949 25.6936 98.8059C25.864 99.6628 26.2848 100.45 26.9028 101.067L35.9464 110.111L44.9901 101.067C45.7832 100.232 46.2185 99.1194 46.2032 97.9674C46.188 96.8154 45.7234 95.7149 44.9084 94.9005C44.0935 94.0861 42.9926 93.6222 41.8406 93.6078C40.6886 93.5933 39.5765 94.0294 38.7414 94.823L36.5536 97.0108C36.3889 97.1664 36.1709 97.2532 35.9443 97.2532C35.7176 97.2532 35.4996 97.1664 35.3349 97.0108L33.1472 94.823C32.7379 94.4133 32.2519 94.0883 31.7169 93.8667C31.1819 93.645 30.6084 93.5309 30.0293 93.5311Z" fill="white"/>
<path d="M28.1953 99.1251C27.9669 99.1251 27.7478 99.0344 27.5863 98.8729C27.4247 98.7113 27.334 98.4923 27.334 98.2638C27.334 97.4643 27.6516 96.6976 28.2169 96.1322C28.7823 95.5669 29.549 95.2493 30.3485 95.2493C30.577 95.2493 30.796 95.34 30.9576 95.5015C31.1191 95.6631 31.2098 95.8821 31.2098 96.1106C31.2098 96.339 31.1191 96.5581 30.9576 96.7196C30.796 96.8811 30.577 96.9719 30.3485 96.9719C30.0059 96.9719 29.6773 97.108 29.435 97.3503C29.1927 97.5926 29.0566 97.9212 29.0566 98.2638C29.0566 98.4923 28.9658 98.7113 28.8043 98.8729C28.6428 99.0344 28.4237 99.1251 28.1953 99.1251Z" fill="white"/>
<path d="M20.9072 135.176C20.3604 135.176 19.8851 135.091 19.4814 134.922C19.0811 134.753 18.7653 134.517 18.5342 134.214C18.3031 133.911 18.1729 133.558 18.1436 133.154L18.1387 133.086H19.3594L19.3643 133.135C19.3838 133.333 19.4619 133.506 19.5986 133.652C19.7386 133.799 19.9242 133.914 20.1553 133.999C20.3864 134.08 20.6501 134.121 20.9463 134.121C21.2295 134.121 21.4801 134.077 21.6982 133.989C21.9163 133.901 22.0872 133.781 22.2109 133.628C22.3346 133.472 22.3965 133.293 22.3965 133.091V133.086C22.3965 132.832 22.2972 132.625 22.0986 132.466C21.9001 132.303 21.5729 132.173 21.1172 132.075L20.3604 131.919C19.6377 131.766 19.112 131.522 18.7832 131.187C18.4577 130.848 18.2949 130.417 18.2949 129.893V129.888C18.2949 129.468 18.4056 129.1 18.627 128.784C18.8516 128.468 19.1592 128.223 19.5498 128.047C19.9437 127.868 20.3945 127.778 20.9023 127.778C21.4232 127.778 21.874 127.866 22.2549 128.042C22.6357 128.215 22.9352 128.451 23.1533 128.75C23.3714 129.049 23.4935 129.388 23.5195 129.766L23.5244 129.829H22.3232L22.3135 129.771C22.2842 129.585 22.2077 129.424 22.084 129.287C21.9635 129.147 21.8024 129.036 21.6006 128.955C21.3988 128.874 21.1628 128.833 20.8926 128.833C20.6354 128.833 20.4059 128.874 20.2041 128.955C20.0023 129.033 19.8428 129.144 19.7256 129.287C19.6117 129.43 19.5547 129.603 19.5547 129.805V129.81C19.5547 130.057 19.6507 130.262 19.8428 130.425C20.0381 130.588 20.3555 130.715 20.7949 130.806L21.5518 130.967C22.0465 131.071 22.4486 131.209 22.7578 131.382C23.0671 131.554 23.2933 131.769 23.4365 132.026C23.583 132.28 23.6562 132.586 23.6562 132.944V132.949C23.6562 133.405 23.5439 133.799 23.3193 134.131C23.098 134.463 22.7806 134.72 22.3672 134.902C21.957 135.085 21.4704 135.176 20.9072 135.176ZM27.2305 135.107C26.6999 135.107 26.2441 134.995 25.8633 134.771C25.4857 134.546 25.1943 134.227 24.9893 133.813C24.7842 133.4 24.6816 132.91 24.6816 132.344V132.339C24.6816 131.779 24.7826 131.291 24.9844 130.874C25.1895 130.457 25.4792 130.135 25.8535 129.907C26.2279 129.676 26.6673 129.561 27.1719 129.561C27.6797 129.561 28.1159 129.673 28.4805 129.897C28.8483 130.119 29.1315 130.43 29.3301 130.83C29.5286 131.23 29.6279 131.699 29.6279 132.236V132.637H25.292V131.821H29.0322L28.4561 132.583V132.1C28.4561 131.745 28.4023 131.45 28.2949 131.216C28.1875 130.981 28.0378 130.806 27.8457 130.688C27.6569 130.571 27.4372 130.513 27.1865 130.513C26.9359 130.513 26.7129 130.575 26.5176 130.698C26.3255 130.819 26.1725 130.998 26.0586 131.235C25.9479 131.47 25.8926 131.758 25.8926 132.1V132.588C25.8926 132.917 25.9479 133.198 26.0586 133.433C26.1693 133.664 26.3255 133.843 26.5273 133.97C26.7324 134.093 26.9749 134.155 27.2549 134.155C27.473 134.155 27.6602 134.124 27.8164 134.062C27.9759 133.997 28.1045 133.921 28.2021 133.833C28.2998 133.742 28.3682 133.656 28.4072 133.574L28.4219 133.54H29.5742L29.5645 133.584C29.5221 133.757 29.444 133.932 29.3301 134.111C29.2194 134.287 29.068 134.451 28.876 134.604C28.6872 134.754 28.4561 134.876 28.1826 134.971C27.9092 135.062 27.5918 135.107 27.2305 135.107ZM30.8438 135V129.663H32.0596V130.483H32.1426C32.2337 130.197 32.3965 129.974 32.6309 129.814C32.8685 129.655 33.1631 129.575 33.5146 129.575C33.6058 129.575 33.6953 129.582 33.7832 129.595C33.8743 129.604 33.9492 129.618 34.0078 129.634V130.723C33.9102 130.7 33.8109 130.684 33.71 130.674C33.6123 130.661 33.5098 130.654 33.4023 130.654C33.1322 130.654 32.8962 130.705 32.6943 130.806C32.4925 130.907 32.3363 131.051 32.2256 131.24C32.1149 131.426 32.0596 131.646 32.0596 131.899V135H30.8438ZM36.5078 135L34.6084 129.663H35.9072L37.1377 133.813H37.2256L38.4512 129.663H39.7305L37.8359 135H36.5078ZM40.7705 135V129.663H41.9814V135H40.7705ZM41.3809 128.77C41.1823 128.77 41.0114 128.7 40.8682 128.56C40.7249 128.42 40.6533 128.252 40.6533 128.057C40.6533 127.855 40.7249 127.686 40.8682 127.549C41.0114 127.409 41.1823 127.339 41.3809 127.339C41.5794 127.339 41.7487 127.409 41.8887 127.549C42.0319 127.686 42.1035 127.855 42.1035 128.057C42.1035 128.252 42.0319 128.42 41.8887 128.56C41.7487 128.7 41.5794 128.77 41.3809 128.77ZM45.7705 135.107C45.2334 135.107 44.7744 134.997 44.3936 134.775C44.0127 134.554 43.7214 134.235 43.5195 133.818C43.3177 133.402 43.2168 132.904 43.2168 132.324V132.314C43.2168 131.738 43.3177 131.245 43.5195 130.835C43.7214 130.425 44.0127 130.111 44.3936 129.893C44.7744 129.671 45.2318 129.561 45.7656 129.561C46.2246 129.561 46.6185 129.64 46.9473 129.8C47.2793 129.956 47.5413 130.174 47.7334 130.454C47.9287 130.731 48.0492 131.055 48.0947 131.426V131.445H46.9473L46.9424 131.431C46.887 131.17 46.7601 130.957 46.5615 130.791C46.3662 130.625 46.1025 130.542 45.7705 130.542C45.4938 130.542 45.2562 130.612 45.0576 130.752C44.8623 130.892 44.7126 131.094 44.6084 131.357C44.5042 131.621 44.4521 131.94 44.4521 132.314V132.324C44.4521 132.702 44.5042 133.026 44.6084 133.296C44.7158 133.563 44.8672 133.768 45.0625 133.911C45.2578 134.051 45.4938 134.121 45.7705 134.121C46.0863 134.121 46.3402 134.049 46.5322 133.906C46.7275 133.763 46.8626 133.551 46.9375 133.271L46.9473 133.252L48.0898 133.247L48.085 133.291C48.0264 133.652 47.8994 133.97 47.7041 134.243C47.512 134.517 47.2549 134.73 46.9326 134.883C46.6104 135.033 46.223 135.107 45.7705 135.107ZM51.5371 135.107C51.0065 135.107 50.5508 134.995 50.1699 134.771C49.7923 134.546 49.501 134.227 49.2959 133.813C49.0908 133.4 48.9883 132.91 48.9883 132.344V132.339C48.9883 131.779 49.0892 131.291 49.291 130.874C49.4961 130.457 49.7858 130.135 50.1602 129.907C50.5345 129.676 50.974 129.561 51.4785 129.561C51.9863 129.561 52.4225 129.673 52.7871 129.897C53.1549 130.119 53.4382 130.43 53.6367 130.83C53.8353 131.23 53.9346 131.699 53.9346 132.236V132.637H49.5986V131.821H53.3389L52.7627 132.583V132.1C52.7627 131.745 52.709 131.45 52.6016 131.216C52.4941 130.981 52.3444 130.806 52.1523 130.688C51.9635 130.571 51.7438 130.513 51.4932 130.513C51.2425 130.513 51.0195 130.575 50.8242 130.698C50.6322 130.819 50.4792 130.998 50.3652 131.235C50.2546 131.47 50.1992 131.758 50.1992 132.1V132.588C50.1992 132.917 50.2546 133.198 50.3652 133.433C50.4759 133.664 50.6322 133.843 50.834 133.97C51.0391 134.093 51.2816 134.155 51.5615 134.155C51.7796 134.155 51.9668 134.124 52.123 134.062C52.2826 133.997 52.4111 133.921 52.5088 133.833C52.6064 133.742 52.6748 133.656 52.7139 133.574L52.7285 133.54H53.8809L53.8711 133.584C53.8288 133.757 53.7507 133.932 53.6367 134.111C53.526 134.287 53.3747 134.451 53.1826 134.604C52.9938 134.754 52.7627 134.876 52.4893 134.971C52.2158 135.062 51.8984 135.107 51.5371 135.107Z" fill="white"/>
<path d="M44.5408 178C44.2963 177.999 44.0622 177.901 43.8899 177.728L38.8121 172.651C38.6388 172.478 38.5415 172.243 38.5415 171.998C38.5415 171.753 38.6388 171.518 38.8121 171.345C38.9853 171.171 39.2203 171.074 39.4653 171.074C39.7103 171.074 39.9452 171.171 40.1184 171.345L44.5408 175.771L45.5425 174.769L41.1155 170.343C40.9423 170.17 40.845 169.935 40.845 169.69C40.845 169.445 40.9423 169.21 41.1155 169.037C41.2888 168.864 41.5237 168.766 41.7687 168.766C42.0137 168.766 42.2487 168.864 42.4219 169.037L47.4997 174.114C47.5856 174.2 47.6537 174.301 47.7001 174.413C47.7466 174.525 47.7705 174.646 47.7705 174.767C47.7705 174.888 47.7466 175.008 47.7001 175.12C47.6537 175.232 47.5856 175.334 47.4997 175.42L45.1916 177.728C45.0193 177.901 44.7852 177.999 44.5408 178Z" fill="white"/>
<path d="M34.3851 174.308C32.3765 174.308 30.413 173.712 28.743 172.596C27.0729 171.481 25.7712 169.895 25.0025 168.04C24.2339 166.184 24.0328 164.143 24.4246 162.173C24.8165 160.203 25.7837 158.394 27.204 156.974C28.6243 155.554 30.4339 154.587 32.4039 154.195C34.3738 153.803 36.4158 154.004 38.2715 154.773C40.1272 155.541 41.7133 156.843 42.8292 158.513C43.9451 160.182 44.5407 162.146 44.5407 164.154C44.5407 166.847 43.4708 169.43 41.5662 171.334C39.6617 173.238 37.0786 174.308 34.3851 174.308ZM34.3851 155.846C32.7417 155.846 31.1352 156.333 29.7688 157.246C28.4024 158.159 27.3374 159.457 26.7085 160.975C26.0796 162.493 25.915 164.163 26.2356 165.775C26.5562 167.386 27.3476 168.866 28.5097 170.028C29.6717 171.19 31.1523 171.981 32.7641 172.302C34.3759 172.622 36.0466 172.458 37.5649 171.829C39.0832 171.2 40.3809 170.136 41.2939 168.769C42.2069 167.403 42.6943 165.797 42.6943 164.154C42.6943 161.951 41.8188 159.837 40.2606 158.279C38.7023 156.721 36.5888 155.846 34.3851 155.846Z" fill="white"/>
<path d="M34.385 166.923C33.472 166.923 32.5795 166.652 31.8204 166.145C31.0612 165.638 30.4696 164.917 30.1202 164.074C29.7708 163.231 29.6794 162.303 29.8575 161.407C30.0356 160.512 30.4753 159.69 31.1209 159.044C31.7664 158.399 32.589 157.959 33.4844 157.781C34.3799 157.603 35.308 157.694 36.1515 158.044C36.995 158.393 37.716 158.984 38.2232 159.743C38.7304 160.502 39.0012 161.395 39.0012 162.308C39.0012 162.914 38.8818 163.514 38.6498 164.074C38.4178 164.634 38.0778 165.143 37.6491 165.571C37.2205 166 36.7116 166.34 36.1515 166.572C35.5915 166.804 34.9912 166.923 34.385 166.923ZM34.385 159.538C33.8372 159.538 33.3017 159.701 32.8462 160.005C32.3907 160.309 32.0357 160.742 31.8261 161.248C31.6165 161.754 31.5616 162.311 31.6685 162.848C31.7754 163.385 32.0392 163.879 32.4265 164.266C32.8139 164.653 33.3074 164.917 33.8446 165.024C34.3819 165.131 34.9388 165.076 35.4449 164.866C35.951 164.656 36.3836 164.302 36.6879 163.846C36.9923 163.391 37.1547 162.855 37.1547 162.308C37.1547 161.573 36.8629 160.869 36.3435 160.35C35.8241 159.83 35.1196 159.538 34.385 159.538Z" fill="white"/>
<path d="M39.4624 172C39.2175 172 38.9827 171.903 38.8096 171.73C38.6364 171.557 38.5392 171.322 38.5392 171.077C38.5392 169.975 38.1014 168.919 37.3223 168.14C36.5432 167.361 35.4865 166.923 34.3846 166.923C33.2827 166.923 32.226 167.361 31.4469 168.14C30.6677 168.919 30.23 169.975 30.23 171.077C30.23 171.322 30.1328 171.557 29.9596 171.73C29.7865 171.903 29.5516 172 29.3068 172C29.0619 172 28.8271 171.903 28.654 171.73C28.4808 171.557 28.3835 171.322 28.3835 171.077C28.3835 169.486 29.0158 167.96 30.1412 166.834C31.2666 165.709 32.793 165.077 34.3846 165.077C35.9762 165.077 37.5026 165.709 38.628 166.834C39.7534 167.96 40.3856 169.486 40.3856 171.077C40.3856 171.322 40.2884 171.557 40.1152 171.73C39.9421 171.903 39.7073 172 39.4624 172Z" fill="white"/>
<path d="M34.3851 174.308C32.3765 174.308 30.413 173.712 28.743 172.596C27.0729 171.481 25.7712 169.895 25.0025 168.04C24.2339 166.184 24.0328 164.143 24.4246 162.173C24.8165 160.203 25.7837 158.394 27.204 156.974C28.6243 155.554 30.4339 154.587 32.4039 154.195C34.3738 153.803 36.4158 154.004 38.2715 154.773C40.1272 155.541 41.7133 156.843 42.8292 158.513C43.9451 160.182 44.5407 162.146 44.5407 164.154C44.5407 166.847 43.4708 169.43 41.5662 171.334C39.6617 173.238 37.0786 174.308 34.3851 174.308ZM34.3851 155.846C32.7417 155.846 31.1352 156.333 29.7688 157.246C28.4024 158.159 27.3374 159.457 26.7085 160.975C26.0796 162.493 25.915 164.163 26.2356 165.775C26.5562 167.386 27.3476 168.866 28.5097 170.028C29.6717 171.19 31.1523 171.981 32.7641 172.302C34.3759 172.622 36.0466 172.458 37.5649 171.829C39.0832 171.2 40.3809 170.136 41.2939 168.769C42.2069 167.403 42.6943 165.797 42.6943 164.154C42.6943 161.951 41.8188 159.837 40.2606 158.279C38.7023 156.721 36.5888 155.846 34.3851 155.846Z" fill="white"/>
<path d="M12.1816 199V191.954H13.627L15.7461 197.379H15.8291L17.9434 191.954H19.3887V199H18.2559V193.99H17.6406L18.8906 192.149L16.2148 199H15.3555L12.6846 192.149L13.9346 193.99H13.3145V199H12.1816ZM22.4551 199.088C22.1198 199.088 21.8187 199.023 21.5518 198.893C21.2881 198.762 21.0798 198.578 20.9268 198.341C20.777 198.1 20.7021 197.817 20.7021 197.491V197.481C20.7021 197.166 20.7803 196.894 20.9365 196.666C21.0928 196.435 21.3223 196.254 21.625 196.124C21.9277 195.994 22.2956 195.917 22.7285 195.895L24.7012 195.772V196.573L22.8994 196.69C22.5576 196.71 22.3053 196.782 22.1426 196.905C21.9798 197.029 21.8984 197.201 21.8984 197.423V197.433C21.8984 197.66 21.9847 197.838 22.1572 197.965C22.333 198.092 22.556 198.155 22.8262 198.155C23.0703 198.155 23.2884 198.106 23.4805 198.009C23.6725 197.911 23.8239 197.779 23.9346 197.613C24.0452 197.444 24.1006 197.254 24.1006 197.042V195.353C24.1006 195.086 24.016 194.882 23.8467 194.742C23.6774 194.599 23.4268 194.527 23.0947 194.527C22.818 194.527 22.5918 194.576 22.416 194.674C22.2402 194.768 22.1214 194.903 22.0596 195.079L22.0547 195.099H20.9072L20.9121 195.055C20.9512 194.755 21.0684 194.493 21.2637 194.269C21.459 194.044 21.7178 193.87 22.04 193.746C22.3623 193.622 22.7334 193.561 23.1533 193.561C23.6156 193.561 24.0062 193.632 24.3252 193.775C24.6442 193.915 24.8867 194.12 25.0527 194.391C25.2188 194.658 25.3018 194.978 25.3018 195.353V199H24.1006V198.268H24.0176C23.9199 198.437 23.793 198.583 23.6367 198.707C23.4837 198.831 23.3079 198.925 23.1094 198.99C22.9108 199.055 22.6927 199.088 22.4551 199.088ZM26.7617 199V193.663H27.9775V194.483H28.0605C28.1517 194.197 28.3145 193.974 28.5488 193.814C28.7865 193.655 29.0811 193.575 29.4326 193.575C29.5238 193.575 29.6133 193.582 29.7012 193.595C29.7923 193.604 29.8672 193.618 29.9258 193.634V194.723C29.8281 194.7 29.7288 194.684 29.6279 194.674C29.5303 194.661 29.4277 194.654 29.3203 194.654C29.0501 194.654 28.8141 194.705 28.6123 194.806C28.4105 194.907 28.2542 195.051 28.1436 195.24C28.0329 195.426 27.9775 195.646 27.9775 195.899V199H26.7617ZM30.9609 199V191.598H32.1768V199H30.9609ZM34.3154 199L32.5186 196.578L33.4219 195.836L35.7754 199H34.3154ZM32.0742 197.232L32.0303 195.855H32.2598L34.2275 193.663H35.6338L33.3145 196.1L32.7578 196.534L32.0742 197.232ZM38.7051 199.107C38.1745 199.107 37.7188 198.995 37.3379 198.771C36.9603 198.546 36.6689 198.227 36.4639 197.813C36.2588 197.4 36.1562 196.91 36.1562 196.344V196.339C36.1562 195.779 36.2572 195.291 36.459 194.874C36.6641 194.457 36.9538 194.135 37.3281 193.907C37.7025 193.676 38.1419 193.561 38.6465 193.561C39.1543 193.561 39.5905 193.673 39.9551 193.897C40.3229 194.119 40.6061 194.43 40.8047 194.83C41.0033 195.23 41.1025 195.699 41.1025 196.236V196.637H36.7666V195.821H40.5068L39.9307 196.583V196.1C39.9307 195.745 39.877 195.45 39.7695 195.216C39.6621 194.981 39.5124 194.806 39.3203 194.688C39.1315 194.571 38.9118 194.513 38.6611 194.513C38.4105 194.513 38.1875 194.575 37.9922 194.698C37.8001 194.819 37.6471 194.998 37.5332 195.235C37.4225 195.47 37.3672 195.758 37.3672 196.1V196.588C37.3672 196.917 37.4225 197.198 37.5332 197.433C37.6439 197.664 37.8001 197.843 38.002 197.97C38.207 198.093 38.4495 198.155 38.7295 198.155C38.9476 198.155 39.1348 198.124 39.291 198.062C39.4505 197.997 39.5791 197.921 39.6768 197.833C39.7744 197.742 39.8428 197.656 39.8818 197.574L39.8965 197.54H41.0488L41.0391 197.584C40.9967 197.757 40.9186 197.932 40.8047 198.111C40.694 198.287 40.5426 198.451 40.3506 198.604C40.1618 198.754 39.9307 198.876 39.6572 198.971C39.3838 199.062 39.0664 199.107 38.7051 199.107ZM44.418 199.024C43.806 199.024 43.3649 198.912 43.0947 198.688C42.8245 198.463 42.6895 198.095 42.6895 197.584V194.605H41.8594V193.663H42.6895V192.354H43.9248V193.663H45.0479V194.605H43.9248V197.296C43.9248 197.56 43.9801 197.753 44.0908 197.877C44.2048 197.997 44.387 198.058 44.6377 198.058C44.7256 198.058 44.7972 198.056 44.8525 198.053C44.9111 198.046 44.9762 198.04 45.0479 198.033V198.971C44.9632 198.987 44.8656 199 44.7549 199.01C44.6475 199.02 44.5352 199.024 44.418 199.024ZM46.2783 199V193.663H47.4893V199H46.2783ZM46.8887 192.77C46.6901 192.77 46.5192 192.7 46.376 192.56C46.2327 192.42 46.1611 192.252 46.1611 192.057C46.1611 191.855 46.2327 191.686 46.376 191.549C46.5192 191.409 46.6901 191.339 46.8887 191.339C47.0872 191.339 47.2565 191.409 47.3965 191.549C47.5397 191.686 47.6113 191.855 47.6113 192.057C47.6113 192.252 47.5397 192.42 47.3965 192.56C47.2565 192.7 47.0872 192.77 46.8887 192.77ZM48.9883 199V193.663H50.2041V194.483H50.2871C50.4141 194.194 50.6061 193.967 50.8633 193.805C51.1204 193.642 51.4411 193.561 51.8252 193.561C52.4209 193.561 52.8766 193.733 53.1924 194.078C53.5081 194.423 53.666 194.913 53.666 195.548V199H52.4502V195.831C52.4502 195.414 52.3623 195.102 52.1865 194.894C52.014 194.685 51.7438 194.581 51.376 194.581C51.1351 194.581 50.9268 194.635 50.751 194.742C50.5752 194.85 50.4401 195.001 50.3457 195.196C50.2513 195.392 50.2041 195.623 50.2041 195.89V199H48.9883ZM57.3965 200.875C56.9277 200.875 56.5225 200.813 56.1807 200.689C55.8421 200.566 55.5752 200.39 55.3799 200.162C55.1846 199.938 55.0658 199.675 55.0234 199.376L55.0283 199.361H56.2393L56.249 199.376C56.2881 199.545 56.4069 199.684 56.6055 199.791C56.8073 199.902 57.0775 199.957 57.416 199.957C57.8327 199.957 58.1549 199.864 58.3828 199.679C58.6139 199.493 58.7295 199.229 58.7295 198.888V197.862H58.6465C58.5456 198.054 58.4137 198.217 58.251 198.351C58.0915 198.484 57.9076 198.585 57.6992 198.653C57.4941 198.718 57.2679 198.751 57.0205 198.751C56.5713 198.751 56.1823 198.644 55.8535 198.429C55.5247 198.211 55.2708 197.91 55.0918 197.525C54.916 197.141 54.8281 196.697 54.8281 196.192V196.183C54.8281 195.668 54.9176 195.216 55.0967 194.825C55.2757 194.435 55.5296 194.129 55.8584 193.907C56.1904 193.686 56.5859 193.575 57.0449 193.575C57.2923 193.575 57.5186 193.614 57.7236 193.692C57.932 193.771 58.1143 193.881 58.2705 194.024C58.43 194.168 58.5602 194.34 58.6611 194.542H58.7246V193.663H59.9404V198.868C59.9404 199.278 59.8363 199.633 59.6279 199.933C59.4229 200.235 59.1299 200.468 58.749 200.631C58.3682 200.794 57.9173 200.875 57.3965 200.875ZM57.3965 197.784C57.6764 197.784 57.9173 197.717 58.1191 197.584C58.321 197.447 58.4756 197.26 58.583 197.022C58.6937 196.785 58.749 196.508 58.749 196.192V196.183C58.749 195.867 58.6937 195.59 58.583 195.353C58.4756 195.112 58.321 194.924 58.1191 194.791C57.9173 194.654 57.6764 194.586 57.3965 194.586C57.1133 194.586 56.8724 194.654 56.6738 194.791C56.4785 194.924 56.3288 195.112 56.2246 195.353C56.1237 195.59 56.0732 195.867 56.0732 196.183V196.192C56.0732 196.505 56.1237 196.782 56.2246 197.022C56.3288 197.26 56.4785 197.447 56.6738 197.584C56.8724 197.717 57.1133 197.784 57.3965 197.784Z" fill="white"/>
<path d="M46.102 236.917H30.8845C30.6688 236.922 30.4583 236.85 30.2898 236.715C30.1213 236.58 30.0054 236.391 29.9622 236.179L26.9372 221.239H24.922C24.6774 221.239 24.4428 221.141 24.2699 220.968C24.0969 220.795 23.9998 220.561 23.9998 220.316C23.9998 220.072 24.0969 219.837 24.2699 219.664C24.4428 219.491 24.6774 219.394 24.922 219.394H27.6888C27.9046 219.39 28.1151 219.461 28.2836 219.596C28.4521 219.731 28.568 219.92 28.6111 220.132L31.6362 235.073H46.102C46.3466 235.073 46.5812 235.17 46.7542 235.343C46.9271 235.516 47.0243 235.75 47.0243 235.995C47.0243 236.239 46.9271 236.474 46.7542 236.647C46.5812 236.82 46.3466 236.917 46.102 236.917Z" fill="white"/>
<path d="M45.1804 232.767H30.424C30.1794 232.767 29.9449 232.67 29.7719 232.497C29.5989 232.324 29.5018 232.089 29.5018 231.844C29.5018 231.6 29.5989 231.365 29.7719 231.192C29.9449 231.019 30.1794 230.922 30.424 230.922H44.4334L45.9136 224.005H28.5795C28.3349 224.005 28.1003 223.908 27.9274 223.735C27.7544 223.562 27.6572 223.328 27.6572 223.083C27.6572 222.838 27.7544 222.604 27.9274 222.431C28.1003 222.258 28.3349 222.161 28.5795 222.161H47.0572C47.1965 222.158 47.3347 222.186 47.4614 222.244C47.5881 222.302 47.7 222.388 47.7887 222.495C47.8775 222.603 47.9408 222.729 47.9738 222.864C48.0068 222.999 48.0088 223.14 47.9795 223.277L46.1027 232.038C46.0577 232.248 45.941 232.435 45.7726 232.568C45.6043 232.701 45.3949 232.772 45.1804 232.767Z" fill="white"/>
<path d="M30.9175 240.606C30.3702 240.606 29.8353 240.444 29.3803 240.14C28.9253 239.836 28.5707 239.404 28.3612 238.898C28.1518 238.393 28.097 237.836 28.2038 237.3C28.3106 236.763 28.5741 236.27 28.961 235.883C29.348 235.496 29.841 235.232 30.3777 235.126C30.9144 235.019 31.4707 235.074 31.9763 235.283C32.4818 235.493 32.914 235.847 33.218 236.302C33.522 236.757 33.6843 237.292 33.6843 237.839C33.6843 238.573 33.3928 239.277 32.8739 239.796C32.355 240.315 31.6513 240.606 30.9175 240.606ZM30.9175 236.917C30.735 236.917 30.5567 236.971 30.4051 237.072C30.2534 237.174 30.1352 237.318 30.0654 237.486C29.9956 237.655 29.9773 237.84 30.0129 238.019C30.0485 238.198 30.1363 238.362 30.2653 238.491C30.3943 238.62 30.5586 238.708 30.7375 238.744C30.9164 238.779 31.1019 238.761 31.2704 238.691C31.4389 238.622 31.583 238.503 31.6843 238.352C31.7856 238.2 31.8397 238.022 31.8397 237.839C31.8397 237.595 31.7426 237.36 31.5696 237.187C31.3966 237.014 31.1621 236.917 30.9175 236.917Z" fill="white"/>
<path d="M42.9067 240.606C42.3595 240.606 41.8246 240.444 41.3696 240.14C40.9145 239.836 40.5599 239.404 40.3505 238.898C40.1411 238.393 40.0863 237.836 40.1931 237.3C40.2998 236.763 40.5633 236.27 40.9503 235.883C41.3372 235.496 41.8302 235.232 42.3669 235.126C42.9036 235.019 43.46 235.074 43.9655 235.283C44.4711 235.493 44.9032 235.847 45.2072 236.302C45.5113 236.757 45.6735 237.292 45.6735 237.839C45.6735 238.573 45.382 239.277 44.8631 239.796C44.3443 240.315 43.6405 240.606 42.9067 240.606ZM42.9067 236.917C42.7243 236.917 42.546 236.971 42.3943 237.072C42.2427 237.174 42.1244 237.318 42.0546 237.486C41.9848 237.655 41.9666 237.84 42.0022 238.019C42.0377 238.198 42.1256 238.362 42.2546 238.491C42.3835 238.62 42.5479 238.708 42.7268 238.744C42.9057 238.779 43.0911 238.761 43.2596 238.691C43.4282 238.622 43.5722 238.503 43.6736 238.352C43.7749 238.2 43.829 238.022 43.829 237.839C43.829 237.595 43.7318 237.36 43.5589 237.187C43.3859 237.014 43.1513 236.917 42.9067 236.917Z" fill="white"/>
<path d="M13.2119 263.176C12.5446 263.176 11.9684 263.026 11.4834 262.727C11.0016 262.427 10.6289 262.002 10.3652 261.452C10.1048 260.899 9.97461 260.243 9.97461 259.484V259.475C9.97461 258.713 10.1048 258.057 10.3652 257.507C10.6289 256.953 11.0016 256.527 11.4834 256.228C11.9652 255.928 12.5397 255.778 13.207 255.778C13.7409 255.778 14.2227 255.884 14.6523 256.096C15.082 256.304 15.432 256.594 15.7021 256.965C15.9723 257.333 16.1351 257.756 16.1904 258.234L16.1855 258.273H14.9551L14.9502 258.249C14.8916 257.972 14.7809 257.731 14.6182 257.526C14.4554 257.318 14.2536 257.157 14.0127 257.043C13.7718 256.926 13.5033 256.867 13.207 256.867C12.8099 256.867 12.4648 256.973 12.1719 257.185C11.8789 257.396 11.6527 257.697 11.4932 258.088C11.3369 258.475 11.2588 258.936 11.2588 259.47V259.479C11.2588 260.013 11.3369 260.476 11.4932 260.866C11.6527 261.257 11.8789 261.558 12.1719 261.77C12.4648 261.981 12.8115 262.087 13.2119 262.087C13.5114 262.087 13.7799 262.035 14.0176 261.931C14.2585 261.826 14.4587 261.68 14.6182 261.491C14.7809 261.299 14.8916 261.075 14.9502 260.817L14.96 260.788H16.1904V260.827C16.1286 261.296 15.9642 261.706 15.6973 262.058C15.4303 262.409 15.0853 262.684 14.6621 262.883C14.2389 263.078 13.7555 263.176 13.2119 263.176ZM19.7744 263.107C19.2438 263.107 18.7865 262.997 18.4023 262.775C18.0182 262.551 17.722 262.232 17.5137 261.818C17.3086 261.405 17.2061 260.91 17.2061 260.334V260.324C17.2061 259.755 17.3102 259.263 17.5186 258.85C17.7269 258.433 18.0215 258.114 18.4023 257.893C18.7865 257.671 19.2438 257.561 19.7744 257.561C20.305 257.561 20.7607 257.671 21.1416 257.893C21.5257 258.114 21.8219 258.431 22.0303 258.845C22.2386 259.258 22.3428 259.751 22.3428 260.324V260.334C22.3428 260.91 22.2386 261.405 22.0303 261.818C21.8252 262.232 21.5306 262.551 21.1465 262.775C20.7656 262.997 20.3083 263.107 19.7744 263.107ZM19.7744 262.121C20.0544 262.121 20.292 262.051 20.4873 261.911C20.6859 261.768 20.8372 261.564 20.9414 261.301C21.0456 261.034 21.0977 260.713 21.0977 260.339V260.329C21.0977 259.951 21.0456 259.631 20.9414 259.367C20.8372 259.1 20.6859 258.897 20.4873 258.757C20.292 258.614 20.0544 258.542 19.7744 258.542C19.4945 258.542 19.2552 258.614 19.0566 258.757C18.8581 258.897 18.7067 259.1 18.6025 259.367C18.4984 259.631 18.4463 259.951 18.4463 260.329V260.339C18.4463 260.713 18.4984 261.034 18.6025 261.301C18.7067 261.568 18.8564 261.771 19.0518 261.911C19.2503 262.051 19.4912 262.121 19.7744 262.121ZM23.5635 263V257.663H24.7793V258.493H24.8623C24.9762 258.197 25.1602 257.967 25.4141 257.805C25.6712 257.642 25.9756 257.561 26.3271 257.561C26.568 257.561 26.7845 257.6 26.9766 257.678C27.1719 257.756 27.3395 257.867 27.4795 258.01C27.6195 258.153 27.7269 258.324 27.8018 258.522H27.8896C27.9775 258.33 28.0996 258.163 28.2559 258.02C28.4154 257.873 28.6009 257.761 28.8125 257.683C29.0273 257.601 29.2585 257.561 29.5059 257.561C29.8639 257.561 30.1699 257.632 30.4238 257.775C30.681 257.915 30.8779 258.117 31.0146 258.381C31.1546 258.645 31.2246 258.96 31.2246 259.328V263H30.0088V259.626C30.0088 259.392 29.973 259.198 29.9014 259.045C29.833 258.892 29.7272 258.776 29.584 258.698C29.4408 258.62 29.2601 258.581 29.042 258.581C28.8304 258.581 28.6465 258.63 28.4902 258.728C28.334 258.822 28.2119 258.951 28.124 259.113C28.0394 259.276 27.9971 259.46 27.9971 259.665V263H26.7812V259.538C26.7812 259.34 26.7422 259.169 26.6641 259.025C26.5892 258.882 26.4785 258.773 26.332 258.698C26.1888 258.62 26.0179 258.581 25.8193 258.581C25.6208 258.581 25.4417 258.633 25.2822 258.737C25.126 258.838 25.0023 258.978 24.9111 259.157C24.8232 259.333 24.7793 259.532 24.7793 259.753V263H23.5635ZM32.6553 263V257.663H33.8711V258.493H33.9541C34.068 258.197 34.252 257.967 34.5059 257.805C34.763 257.642 35.0674 257.561 35.4189 257.561C35.6598 257.561 35.8763 257.6 36.0684 257.678C36.2637 257.756 36.4313 257.867 36.5713 258.01C36.7113 258.153 36.8187 258.324 36.8936 258.522H36.9814C37.0693 258.33 37.1914 258.163 37.3477 258.02C37.5072 257.873 37.6927 257.761 37.9043 257.683C38.1191 257.601 38.3503 257.561 38.5977 257.561C38.9557 257.561 39.2617 257.632 39.5156 257.775C39.7728 257.915 39.9697 258.117 40.1064 258.381C40.2464 258.645 40.3164 258.96 40.3164 259.328V263H39.1006V259.626C39.1006 259.392 39.0648 259.198 38.9932 259.045C38.9248 258.892 38.819 258.776 38.6758 258.698C38.5326 258.62 38.3519 258.581 38.1338 258.581C37.9222 258.581 37.7383 258.63 37.582 258.728C37.4258 258.822 37.3037 258.951 37.2158 259.113C37.1312 259.276 37.0889 259.46 37.0889 259.665V263H35.873V259.538C35.873 259.34 35.834 259.169 35.7559 259.025C35.681 258.882 35.5703 258.773 35.4238 258.698C35.2806 258.62 35.1097 258.581 34.9111 258.581C34.7126 258.581 34.5335 258.633 34.374 258.737C34.2178 258.838 34.0941 258.978 34.0029 259.157C33.915 259.333 33.8711 259.532 33.8711 259.753V263H32.6553ZM44.0322 263.107C43.5016 263.107 43.0459 262.995 42.665 262.771C42.2874 262.546 41.9961 262.227 41.791 261.813C41.5859 261.4 41.4834 260.91 41.4834 260.344V260.339C41.4834 259.779 41.5843 259.291 41.7861 258.874C41.9912 258.457 42.2809 258.135 42.6553 257.907C43.0296 257.676 43.4691 257.561 43.9736 257.561C44.4814 257.561 44.9176 257.673 45.2822 257.897C45.6501 258.119 45.9333 258.43 46.1318 258.83C46.3304 259.23 46.4297 259.699 46.4297 260.236V260.637H42.0938V259.821H45.834L45.2578 260.583V260.1C45.2578 259.745 45.2041 259.45 45.0967 259.216C44.9893 258.981 44.8395 258.806 44.6475 258.688C44.4587 258.571 44.2389 258.513 43.9883 258.513C43.7376 258.513 43.5146 258.575 43.3193 258.698C43.1273 258.819 42.9743 258.998 42.8604 259.235C42.7497 259.47 42.6943 259.758 42.6943 260.1V260.588C42.6943 260.917 42.7497 261.198 42.8604 261.433C42.971 261.664 43.1273 261.843 43.3291 261.97C43.5342 262.093 43.7767 262.155 44.0566 262.155C44.2747 262.155 44.4619 262.124 44.6182 262.062C44.7777 261.997 44.9062 261.921 45.0039 261.833C45.1016 261.742 45.1699 261.656 45.209 261.574L45.2236 261.54H46.376L46.3662 261.584C46.3239 261.757 46.2458 261.932 46.1318 262.111C46.0212 262.287 45.8698 262.451 45.6777 262.604C45.4889 262.754 45.2578 262.876 44.9844 262.971C44.7109 263.062 44.3936 263.107 44.0322 263.107ZM47.6455 263V257.663H48.8613V258.483H48.9443C49.0355 258.197 49.1982 257.974 49.4326 257.814C49.6702 257.655 49.9648 257.575 50.3164 257.575C50.4076 257.575 50.4971 257.582 50.585 257.595C50.6761 257.604 50.751 257.618 50.8096 257.634V258.723C50.7119 258.7 50.6126 258.684 50.5117 258.674C50.4141 258.661 50.3115 258.654 50.2041 258.654C49.9339 258.654 49.6979 258.705 49.4961 258.806C49.2943 258.907 49.138 259.051 49.0273 259.24C48.9167 259.426 48.8613 259.646 48.8613 259.899V263H47.6455ZM53.959 263.107C53.4219 263.107 52.9629 262.997 52.582 262.775C52.2012 262.554 51.9098 262.235 51.708 261.818C51.5062 261.402 51.4053 260.904 51.4053 260.324V260.314C51.4053 259.738 51.5062 259.245 51.708 258.835C51.9098 258.425 52.2012 258.111 52.582 257.893C52.9629 257.671 53.4202 257.561 53.9541 257.561C54.4131 257.561 54.807 257.64 55.1357 257.8C55.4678 257.956 55.7298 258.174 55.9219 258.454C56.1172 258.731 56.2376 259.055 56.2832 259.426V259.445H55.1357L55.1309 259.431C55.0755 259.17 54.9486 258.957 54.75 258.791C54.5547 258.625 54.291 258.542 53.959 258.542C53.6823 258.542 53.4447 258.612 53.2461 258.752C53.0508 258.892 52.901 259.094 52.7969 259.357C52.6927 259.621 52.6406 259.94 52.6406 260.314V260.324C52.6406 260.702 52.6927 261.026 52.7969 261.296C52.9043 261.563 53.0557 261.768 53.251 261.911C53.4463 262.051 53.6823 262.121 53.959 262.121C54.2747 262.121 54.5286 262.049 54.7207 261.906C54.916 261.763 55.0511 261.551 55.126 261.271L55.1357 261.252L56.2783 261.247L56.2734 261.291C56.2148 261.652 56.0879 261.97 55.8926 262.243C55.7005 262.517 55.4434 262.73 55.1211 262.883C54.7988 263.033 54.4115 263.107 53.959 263.107ZM59.7256 263.107C59.195 263.107 58.7393 262.995 58.3584 262.771C57.9808 262.546 57.6895 262.227 57.4844 261.813C57.2793 261.4 57.1768 260.91 57.1768 260.344V260.339C57.1768 259.779 57.2777 259.291 57.4795 258.874C57.6846 258.457 57.9743 258.135 58.3486 257.907C58.723 257.676 59.1624 257.561 59.667 257.561C60.1748 257.561 60.611 257.673 60.9756 257.897C61.3434 258.119 61.6266 258.43 61.8252 258.83C62.0238 259.23 62.123 259.699 62.123 260.236V260.637H57.7871V259.821H61.5273L60.9512 260.583V260.1C60.9512 259.745 60.8975 259.45 60.79 259.216C60.6826 258.981 60.5329 258.806 60.3408 258.688C60.152 258.571 59.9323 258.513 59.6816 258.513C59.431 258.513 59.208 258.575 59.0127 258.698C58.8206 258.819 58.6676 258.998 58.5537 259.235C58.443 259.47 58.3877 259.758 58.3877 260.1V260.588C58.3877 260.917 58.443 261.198 58.5537 261.433C58.6644 261.664 58.8206 261.843 59.0225 261.97C59.2275 262.093 59.4701 262.155 59.75 262.155C59.9681 262.155 60.1553 262.124 60.3115 262.062C60.471 261.997 60.5996 261.921 60.6973 261.833C60.7949 261.742 60.8633 261.656 60.9023 261.574L60.917 261.54H62.0693L62.0596 261.584C62.0173 261.757 61.9391 261.932 61.8252 262.111C61.7145 262.287 61.5632 262.451 61.3711 262.604C61.1823 262.754 60.9512 262.876 60.6777 262.971C60.4043 263.062 60.0869 263.107 59.7256 263.107Z" fill="white"/>
<path fill-rule="evenodd" clip-rule="evenodd" d="M45.0002 292.8L35.5386 298.015C34.8924 298.338 34.154 297.877 34.154 297.185V285.877C34.154 285.415 33.6924 285.046 33.277 285.185C28.6616 286.477 25.3385 290.954 25.8923 296.077C26.4 300.738 30.1385 304.523 34.8463 305.031C40.9848 305.677 46.154 300.923 46.154 294.923C46.154 294.369 46.1079 293.815 46.0156 293.262C45.9233 292.8 45.4156 292.569 45.0002 292.8ZM36.7845 294.923L45.8769 290.077C46.4307 289.8 46.6153 289.061 46.2461 288.554C44.1692 285.692 40.9384 283.615 37.246 283.015C36.5999 282.877 35.9999 283.385 35.9999 284.031V294.461C35.9999 294.877 36.4153 295.108 36.7845 294.923Z" fill="white"/>
<path d="M13.5977 327L16.0977 319.954H17.1426V321.263H16.7666L14.916 327H13.5977ZM14.8574 325.179L15.1846 324.207H18.417L18.7441 325.179H14.8574ZM18.7002 327L16.8496 321.263V319.954H17.5137L20.0186 327H18.7002ZM21.1025 327V321.663H22.3184V322.483H22.4014C22.5283 322.194 22.7204 321.967 22.9775 321.805C23.2347 321.642 23.5553 321.561 23.9395 321.561C24.5352 321.561 24.9909 321.733 25.3066 322.078C25.6224 322.423 25.7803 322.913 25.7803 323.548V327H24.5645V323.831C24.5645 323.414 24.4766 323.102 24.3008 322.894C24.1283 322.685 23.8581 322.581 23.4902 322.581C23.2493 322.581 23.041 322.635 22.8652 322.742C22.6895 322.85 22.5544 323.001 22.46 323.196C22.3656 323.392 22.3184 323.623 22.3184 323.89V327H21.1025ZM28.6709 327.088C28.3356 327.088 28.0345 327.023 27.7676 326.893C27.5039 326.762 27.2956 326.578 27.1426 326.341C26.9928 326.1 26.918 325.817 26.918 325.491V325.481C26.918 325.166 26.9961 324.894 27.1523 324.666C27.3086 324.435 27.5381 324.254 27.8408 324.124C28.1436 323.994 28.5114 323.917 28.9443 323.895L30.917 323.772V324.573L29.1152 324.69C28.7734 324.71 28.5212 324.782 28.3584 324.905C28.1956 325.029 28.1143 325.201 28.1143 325.423V325.433C28.1143 325.66 28.2005 325.838 28.373 325.965C28.5488 326.092 28.7718 326.155 29.042 326.155C29.2861 326.155 29.5042 326.106 29.6963 326.009C29.8883 325.911 30.0397 325.779 30.1504 325.613C30.2611 325.444 30.3164 325.254 30.3164 325.042V323.353C30.3164 323.086 30.2318 322.882 30.0625 322.742C29.8932 322.599 29.6426 322.527 29.3105 322.527C29.0339 322.527 28.8076 322.576 28.6318 322.674C28.4561 322.768 28.3372 322.903 28.2754 323.079L28.2705 323.099H27.123L27.1279 323.055C27.167 322.755 27.2842 322.493 27.4795 322.269C27.6748 322.044 27.9336 321.87 28.2559 321.746C28.5781 321.622 28.9492 321.561 29.3691 321.561C29.8314 321.561 30.222 321.632 30.541 321.775C30.86 321.915 31.1025 322.12 31.2686 322.391C31.4346 322.658 31.5176 322.978 31.5176 323.353V327H30.3164V326.268H30.2334C30.1357 326.437 30.0088 326.583 29.8525 326.707C29.6995 326.831 29.5238 326.925 29.3252 326.99C29.1266 327.055 28.9085 327.088 28.6709 327.088ZM33.0264 327V319.598H34.2422V327H33.0264ZM36.3418 328.875C36.2669 328.875 36.1888 328.873 36.1074 328.87C36.0293 328.867 35.9528 328.862 35.8779 328.855V327.923C35.9268 327.929 35.9837 327.933 36.0488 327.933C36.1139 327.936 36.1774 327.938 36.2393 327.938C36.4899 327.938 36.6901 327.882 36.8398 327.771C36.9928 327.664 37.1019 327.49 37.167 327.249L37.2305 327.005L35.3213 321.663H36.6494L38.0557 326.39L37.7236 325.833H38.1436L37.8213 326.39L39.2275 321.663H40.5068L38.5928 327.117C38.4365 327.56 38.2591 327.91 38.0605 328.167C37.8652 328.424 37.6276 328.606 37.3477 328.714C37.071 328.821 36.7357 328.875 36.3418 328.875ZM43.6416 327.024C43.0296 327.024 42.5885 326.912 42.3184 326.688C42.0482 326.463 41.9131 326.095 41.9131 325.584V322.605H41.083V321.663H41.9131V320.354H43.1484V321.663H44.2715V322.605H43.1484V325.296C43.1484 325.56 43.2038 325.753 43.3145 325.877C43.4284 325.997 43.6107 326.058 43.8613 326.058C43.9492 326.058 44.0208 326.056 44.0762 326.053C44.1348 326.046 44.1999 326.04 44.2715 326.033V326.971C44.1868 326.987 44.0892 327 43.9785 327.01C43.8711 327.02 43.7588 327.024 43.6416 327.024ZM45.502 327V321.663H46.7129V327H45.502ZM46.1123 320.77C45.9137 320.77 45.7428 320.7 45.5996 320.56C45.4564 320.42 45.3848 320.252 45.3848 320.057C45.3848 319.855 45.4564 319.686 45.5996 319.549C45.7428 319.409 45.9137 319.339 46.1123 319.339C46.3109 319.339 46.4801 319.409 46.6201 319.549C46.7633 319.686 46.835 319.855 46.835 320.057C46.835 320.252 46.7633 320.42 46.6201 320.56C46.4801 320.7 46.3109 320.77 46.1123 320.77ZM50.502 327.107C49.9648 327.107 49.5059 326.997 49.125 326.775C48.7441 326.554 48.4528 326.235 48.251 325.818C48.0492 325.402 47.9482 324.904 47.9482 324.324V324.314C47.9482 323.738 48.0492 323.245 48.251 322.835C48.4528 322.425 48.7441 322.111 49.125 321.893C49.5059 321.671 49.9632 321.561 50.4971 321.561C50.9561 321.561 51.3499 321.64 51.6787 321.8C52.0107 321.956 52.2728 322.174 52.4648 322.454C52.6602 322.731 52.7806 323.055 52.8262 323.426V323.445H51.6787L51.6738 323.431C51.6185 323.17 51.4915 322.957 51.293 322.791C51.0977 322.625 50.834 322.542 50.502 322.542C50.2253 322.542 49.9876 322.612 49.7891 322.752C49.5938 322.892 49.444 323.094 49.3398 323.357C49.2357 323.621 49.1836 323.94 49.1836 324.314V324.324C49.1836 324.702 49.2357 325.026 49.3398 325.296C49.4473 325.563 49.5986 325.768 49.7939 325.911C49.9893 326.051 50.2253 326.121 50.502 326.121C50.8177 326.121 51.0716 326.049 51.2637 325.906C51.459 325.763 51.5941 325.551 51.6689 325.271L51.6787 325.252L52.8213 325.247L52.8164 325.291C52.7578 325.652 52.6309 325.97 52.4355 326.243C52.2435 326.517 51.9863 326.73 51.6641 326.883C51.3418 327.033 50.9544 327.107 50.502 327.107ZM56 327.107C55.5475 327.107 55.1569 327.044 54.8281 326.917C54.5026 326.787 54.2454 326.608 54.0566 326.38C53.8678 326.149 53.7555 325.882 53.7197 325.579V325.569H54.9258L54.9307 325.579C54.9958 325.765 55.1178 325.916 55.2969 326.033C55.4759 326.15 55.7168 326.209 56.0195 326.209C56.2214 326.209 56.3988 326.181 56.5518 326.126C56.7048 326.067 56.8252 325.988 56.9131 325.887C57.001 325.786 57.0449 325.669 57.0449 325.535V325.525C57.0449 325.369 56.9814 325.239 56.8545 325.135C56.7275 325.027 56.5176 324.941 56.2246 324.876L55.3604 324.681C55.0218 324.606 54.7419 324.502 54.5205 324.368C54.2992 324.235 54.1331 324.07 54.0225 323.875C53.915 323.68 53.8613 323.452 53.8613 323.191V323.187C53.8613 322.864 53.9508 322.581 54.1299 322.337C54.3122 322.093 54.5645 321.902 54.8867 321.766C55.209 321.629 55.5801 321.561 56 321.561C56.4329 321.561 56.8057 321.626 57.1182 321.756C57.4307 321.886 57.6748 322.065 57.8506 322.293C58.0264 322.521 58.1273 322.78 58.1533 323.069V323.079H57.0107L57.0059 323.064C56.9603 322.895 56.8512 322.752 56.6787 322.635C56.5094 322.514 56.2816 322.454 55.9951 322.454C55.8161 322.454 55.6549 322.482 55.5117 322.537C55.3717 322.592 55.2611 322.671 55.1797 322.771C55.1016 322.869 55.0625 322.985 55.0625 323.118V323.123C55.0625 323.227 55.0885 323.318 55.1406 323.396C55.196 323.475 55.2822 323.543 55.3994 323.602C55.5166 323.66 55.6712 323.712 55.8633 323.758L56.7275 323.948C57.2516 324.065 57.639 324.24 57.8896 324.471C58.1403 324.702 58.2656 325.013 58.2656 325.403V325.413C58.2656 325.752 58.168 326.048 57.9727 326.302C57.7773 326.556 57.5088 326.754 57.167 326.897C56.8252 327.037 56.4362 327.107 56 327.107Z" fill="white"/>
<path d="M45.8539 364.24C46.0062 364.24 46.1539 364.125 46.1539 363.977L47.0585 360.732C47.1323 360.506 46.9431 360.317 46.7585 360.317H39.0277L38.9123 359.828C38.8385 359.602 38.6493 359.449 38.4231 359.449H37.5923C37.3293 359.449 37.0662 359.675 37.0662 359.938C37.0293 360.238 37.2923 360.465 37.5554 360.465H38.0446L38.4969 361.974L39.6277 365.86C39.7016 366.086 39.8908 366.238 40.1169 366.238H46.0016C46.2646 366.238 46.5277 366.012 46.5277 365.749C46.5646 365.449 46.3016 365.223 46.0385 365.223H40.8323C40.6062 365.223 40.4169 365.071 40.3431 364.882V364.845C40.2693 364.545 40.4954 364.24 40.8323 364.24H45.8539Z" fill="white"/>
<path d="M40.9523 368.957C41.4111 368.957 41.7831 368.585 41.7831 368.126C41.7831 367.667 41.4111 367.295 40.9523 367.295C40.4935 367.295 40.1216 367.667 40.1216 368.126C40.1216 368.585 40.4935 368.957 40.9523 368.957Z" fill="white"/>
<path d="M45.0231 368.957C45.4819 368.957 45.8539 368.585 45.8539 368.126C45.8539 367.667 45.4819 367.295 45.0231 367.295C44.5643 367.295 44.1923 367.667 44.1923 368.126C44.1923 368.585 44.5643 368.957 45.0231 368.957Z" fill="white"/>
<path d="M40.5739 347.043H25.8646C25.0339 347.043 24.9231 347.911 24.9231 347.985V366.654C24.96 367.143 25.2646 367.9 26.5846 367.9H37.2554C38.46 367.9 38.3862 367.106 38.3123 366.806L38.2754 366.691L38.16 366.275L38.0862 366.049L36.9185 362.163C36.8446 361.9 36.54 361.785 36.54 361.785C36.3508 361.669 36.1616 361.558 36.0508 361.406C35.6723 360.991 35.4831 360.428 35.5246 359.897C35.5985 358.84 36.5031 358.009 37.56 358.009H38.3908C38.9585 358.009 39.4477 358.235 39.8216 358.614L39.8585 358.651C39.9323 358.725 40.0846 358.84 40.3108 358.84H40.8369C41.3262 358.84 41.3631 358.314 41.4046 358.162L41.4416 354.202V348.215C41.4785 347.311 40.8369 347.048 40.5739 347.048V347.043ZM29.7508 364.845C29.7508 365.334 29.3723 365.712 28.8831 365.712H28.0154C27.5262 365.712 27.1477 365.334 27.1477 364.845V363.977C27.1477 363.488 27.5262 363.109 28.0154 363.109H28.8831C29.3723 363.109 29.7508 363.488 29.7508 363.977V364.845ZM29.7508 360.358C29.7508 360.848 29.3723 361.226 28.8831 361.226H28.0154C27.5262 361.226 27.1477 360.848 27.1477 360.358V359.491C27.1477 359.002 27.5262 358.623 28.0154 358.623H28.8831C29.3723 358.623 29.7508 359.002 29.7508 359.491V360.358ZM29.7508 355.946C29.7508 356.435 29.3723 356.814 28.8831 356.814H28.0154C27.5262 356.814 27.1477 356.435 27.1477 355.946V355.078C27.1477 354.589 27.5262 354.211 28.0154 354.211H28.8831C29.3723 354.211 29.7508 354.589 29.7508 355.078V355.946ZM29.7508 351.497C29.7508 351.986 29.3723 352.365 28.8831 352.365H28.0154C27.5262 352.365 27.1477 351.986 27.1477 351.497V350.629C27.1477 350.14 27.5262 349.762 28.0154 349.762H28.8831C29.3723 349.762 29.7508 350.14 29.7508 350.629V351.497ZM34.5416 364.845C34.5416 365.334 34.1631 365.712 33.6739 365.712H32.8062C32.3169 365.712 31.9385 365.334 31.9385 364.845V363.977C31.9385 363.488 32.3169 363.109 32.8062 363.109H33.6739C34.1631 363.109 34.5416 363.488 34.5416 363.977V364.845ZM34.5416 360.358C34.5416 360.848 34.1631 361.226 33.6739 361.226H32.8062C32.3169 361.226 31.9385 360.848 31.9385 360.358V359.491C31.9385 359.002 32.3169 358.623 32.8062 358.623H33.6739C34.1631 358.623 34.5416 359.002 34.5416 359.491V360.358ZM34.5416 355.946C34.5416 356.435 34.1631 356.814 33.6739 356.814H32.8062C32.3169 356.814 31.9385 356.435 31.9385 355.946V355.078C31.9385 354.589 32.3169 354.211 32.8062 354.211H33.6739C34.1631 354.211 34.5416 354.589 34.5416 355.078V355.946ZM34.5416 351.497C34.5416 351.986 34.1631 352.365 33.6739 352.365H32.8062C32.3169 352.365 31.9385 351.986 31.9385 351.497V350.629C31.9385 350.14 32.3169 349.762 32.8062 349.762H33.6739C34.1631 349.762 34.5416 350.14 34.5416 350.629V351.497ZM39.3323 355.946C39.3323 356.435 38.9539 356.814 38.4646 356.814H37.5969C37.1077 356.814 36.7292 356.435 36.7292 355.946V355.078C36.7292 354.589 37.1077 354.211 37.5969 354.211H38.4646C38.9539 354.211 39.3323 354.589 39.3323 355.078V355.946ZM39.3323 351.497C39.3323 351.986 38.9539 352.365 38.4646 352.365H37.5969C37.1077 352.365 36.7292 351.986 36.7292 351.497V350.629C36.7292 350.14 37.1077 349.762 37.5969 349.762H38.4646C38.9539 349.762 39.3323 350.14 39.3323 350.629V351.497Z" fill="white"/>
<path d="M27.6504 391V388.222L25.1797 383.954H26.5566L28.2363 386.977H28.3193L29.999 383.954H31.376L28.9053 388.222V391H27.6504ZM33.8564 391.107C33.3258 391.107 32.8685 390.997 32.4844 390.775C32.1003 390.551 31.804 390.232 31.5957 389.818C31.3906 389.405 31.2881 388.91 31.2881 388.334V388.324C31.2881 387.755 31.3923 387.263 31.6006 386.85C31.8089 386.433 32.1035 386.114 32.4844 385.893C32.8685 385.671 33.3258 385.561 33.8564 385.561C34.387 385.561 34.8428 385.671 35.2236 385.893C35.6077 386.114 35.904 386.431 36.1123 386.845C36.3206 387.258 36.4248 387.751 36.4248 388.324V388.334C36.4248 388.91 36.3206 389.405 36.1123 389.818C35.9072 390.232 35.6126 390.551 35.2285 390.775C34.8477 390.997 34.3903 391.107 33.8564 391.107ZM33.8564 390.121C34.1364 390.121 34.374 390.051 34.5693 389.911C34.7679 389.768 34.9193 389.564 35.0234 389.301C35.1276 389.034 35.1797 388.713 35.1797 388.339V388.329C35.1797 387.951 35.1276 387.631 35.0234 387.367C34.9193 387.1 34.7679 386.897 34.5693 386.757C34.374 386.614 34.1364 386.542 33.8564 386.542C33.5765 386.542 33.3372 386.614 33.1387 386.757C32.9401 386.897 32.7887 387.1 32.6846 387.367C32.5804 387.631 32.5283 387.951 32.5283 388.329V388.339C32.5283 388.713 32.5804 389.034 32.6846 389.301C32.7887 389.568 32.9385 389.771 33.1338 389.911C33.3324 390.051 33.5732 390.121 33.8564 390.121ZM39.4131 391.107C39.016 391.107 38.6823 391.031 38.4121 390.878C38.1419 390.722 37.9385 390.495 37.8018 390.199C37.665 389.9 37.5967 389.538 37.5967 389.115V385.663H38.8125V388.837C38.8125 389.25 38.8939 389.561 39.0566 389.77C39.2194 389.978 39.4847 390.082 39.8525 390.082C40.0479 390.082 40.2204 390.053 40.3701 389.994C40.5231 389.932 40.6501 389.844 40.751 389.73C40.8519 389.617 40.9284 389.48 40.9805 389.32C41.0326 389.158 41.0586 388.975 41.0586 388.773V385.663H42.2744V391H41.0586V390.189H40.9756C40.8942 390.378 40.7803 390.543 40.6338 390.683C40.4873 390.819 40.3115 390.925 40.1064 391C39.9014 391.072 39.6702 391.107 39.4131 391.107ZM43.7588 391V385.663H44.9746V386.483H45.0576C45.1488 386.197 45.3115 385.974 45.5459 385.814C45.7835 385.655 46.0781 385.575 46.4297 385.575C46.5208 385.575 46.6104 385.582 46.6982 385.595C46.7894 385.604 46.8643 385.618 46.9229 385.634V386.723C46.8252 386.7 46.7259 386.684 46.625 386.674C46.5273 386.661 46.4248 386.654 46.3174 386.654C46.0472 386.654 45.8112 386.705 45.6094 386.806C45.4076 386.907 45.2513 387.051 45.1406 387.24C45.0299 387.426 44.9746 387.646 44.9746 387.899V391H43.7588ZM16.0342 405L18.5342 397.954H19.5791V399.263H19.2031L17.3525 405H16.0342ZM17.2939 403.179L17.6211 402.207H20.8535L21.1807 403.179H17.2939ZM21.1367 405L19.2861 399.263V397.954H19.9502L22.4551 405H21.1367ZM25.5361 405.107C24.999 405.107 24.54 404.997 24.1592 404.775C23.7783 404.554 23.487 404.235 23.2852 403.818C23.0833 403.402 22.9824 402.904 22.9824 402.324V402.314C22.9824 401.738 23.0833 401.245 23.2852 400.835C23.487 400.425 23.7783 400.111 24.1592 399.893C24.54 399.671 24.9974 399.561 25.5312 399.561C25.9902 399.561 26.3841 399.64 26.7129 399.8C27.0449 399.956 27.307 400.174 27.499 400.454C27.6943 400.731 27.8148 401.055 27.8604 401.426V401.445H26.7129L26.708 401.431C26.6527 401.17 26.5257 400.957 26.3271 400.791C26.1318 400.625 25.8682 400.542 25.5361 400.542C25.2594 400.542 25.0218 400.612 24.8232 400.752C24.6279 400.892 24.4782 401.094 24.374 401.357C24.2699 401.621 24.2178 401.94 24.2178 402.314V402.324C24.2178 402.702 24.2699 403.026 24.374 403.296C24.4814 403.563 24.6328 403.768 24.8281 403.911C25.0234 404.051 25.2594 404.121 25.5361 404.121C25.8519 404.121 26.1058 404.049 26.2979 403.906C26.4932 403.763 26.6283 403.551 26.7031 403.271L26.7129 403.252L27.8555 403.247L27.8506 403.291C27.792 403.652 27.665 403.97 27.4697 404.243C27.2777 404.517 27.0205 404.73 26.6982 404.883C26.376 405.033 25.9886 405.107 25.5361 405.107ZM31.3076 405.107C30.7705 405.107 30.3115 404.997 29.9307 404.775C29.5498 404.554 29.2585 404.235 29.0566 403.818C28.8548 403.402 28.7539 402.904 28.7539 402.324V402.314C28.7539 401.738 28.8548 401.245 29.0566 400.835C29.2585 400.425 29.5498 400.111 29.9307 399.893C30.3115 399.671 30.7689 399.561 31.3027 399.561C31.7617 399.561 32.1556 399.64 32.4844 399.8C32.8164 399.956 33.0785 400.174 33.2705 400.454C33.4658 400.731 33.5863 401.055 33.6318 401.426V401.445H32.4844L32.4795 401.431C32.4242 401.17 32.2972 400.957 32.0986 400.791C31.9033 400.625 31.6396 400.542 31.3076 400.542C31.0309 400.542 30.7933 400.612 30.5947 400.752C30.3994 400.892 30.2497 401.094 30.1455 401.357C30.0413 401.621 29.9893 401.94 29.9893 402.314V402.324C29.9893 402.702 30.0413 403.026 30.1455 403.296C30.2529 403.563 30.4043 403.768 30.5996 403.911C30.7949 404.051 31.0309 404.121 31.3076 404.121C31.6234 404.121 31.8773 404.049 32.0693 403.906C32.2646 403.763 32.3997 403.551 32.4746 403.271L32.4844 403.252L33.627 403.247L33.6221 403.291C33.5635 403.652 33.4365 403.97 33.2412 404.243C33.0492 404.517 32.792 404.73 32.4697 404.883C32.1475 405.033 31.7601 405.107 31.3076 405.107ZM37.0938 405.107C36.5632 405.107 36.1058 404.997 35.7217 404.775C35.3376 404.551 35.0413 404.232 34.833 403.818C34.6279 403.405 34.5254 402.91 34.5254 402.334V402.324C34.5254 401.755 34.6296 401.263 34.8379 400.85C35.0462 400.433 35.3408 400.114 35.7217 399.893C36.1058 399.671 36.5632 399.561 37.0938 399.561C37.6243 399.561 38.0801 399.671 38.4609 399.893C38.8451 400.114 39.1413 400.431 39.3496 400.845C39.5579 401.258 39.6621 401.751 39.6621 402.324V402.334C39.6621 402.91 39.5579 403.405 39.3496 403.818C39.1445 404.232 38.8499 404.551 38.4658 404.775C38.085 404.997 37.6276 405.107 37.0938 405.107ZM37.0938 404.121C37.3737 404.121 37.6113 404.051 37.8066 403.911C38.0052 403.768 38.1566 403.564 38.2607 403.301C38.3649 403.034 38.417 402.713 38.417 402.339V402.329C38.417 401.951 38.3649 401.631 38.2607 401.367C38.1566 401.1 38.0052 400.897 37.8066 400.757C37.6113 400.614 37.3737 400.542 37.0938 400.542C36.8138 400.542 36.5745 400.614 36.376 400.757C36.1774 400.897 36.026 401.1 35.9219 401.367C35.8177 401.631 35.7656 401.951 35.7656 402.329V402.339C35.7656 402.713 35.8177 403.034 35.9219 403.301C36.026 403.568 36.1758 403.771 36.3711 403.911C36.5697 404.051 36.8105 404.121 37.0938 404.121ZM42.6504 405.107C42.2533 405.107 41.9196 405.031 41.6494 404.878C41.3792 404.722 41.1758 404.495 41.0391 404.199C40.9023 403.9 40.834 403.538 40.834 403.115V399.663H42.0498V402.837C42.0498 403.25 42.1312 403.561 42.2939 403.77C42.4567 403.978 42.722 404.082 43.0898 404.082C43.2852 404.082 43.4577 404.053 43.6074 403.994C43.7604 403.932 43.8874 403.844 43.9883 403.73C44.0892 403.617 44.1657 403.48 44.2178 403.32C44.2699 403.158 44.2959 402.975 44.2959 402.773V399.663H45.5117V405H44.2959V404.189H44.2129C44.1315 404.378 44.0176 404.543 43.8711 404.683C43.7246 404.819 43.5488 404.925 43.3438 405C43.1387 405.072 42.9076 405.107 42.6504 405.107ZM46.9961 405V399.663H48.2119V400.483H48.2949C48.4219 400.194 48.6139 399.967 48.8711 399.805C49.1283 399.642 49.4489 399.561 49.833 399.561C50.4287 399.561 50.8844 399.733 51.2002 400.078C51.516 400.423 51.6738 400.913 51.6738 401.548V405H50.458V401.831C50.458 401.414 50.3701 401.102 50.1943 400.894C50.0218 400.685 49.7516 400.581 49.3838 400.581C49.1429 400.581 48.9346 400.635 48.7588 400.742C48.583 400.85 48.4479 401.001 48.3535 401.196C48.2591 401.392 48.2119 401.623 48.2119 401.89V405H46.9961ZM55.209 405.024C54.597 405.024 54.1559 404.912 53.8857 404.688C53.6156 404.463 53.4805 404.095 53.4805 403.584V400.605H52.6504V399.663H53.4805V398.354H54.7158V399.663H55.8389V400.605H54.7158V403.296C54.7158 403.56 54.7712 403.753 54.8818 403.877C54.9958 403.997 55.1781 404.058 55.4287 404.058C55.5166 404.058 55.5882 404.056 55.6436 404.053C55.7021 404.046 55.7673 404.04 55.8389 404.033V404.971C55.7542 404.987 55.6566 405 55.5459 405.01C55.4385 405.02 55.3262 405.024 55.209 405.024Z" fill="white"/>
<path fill-rule="evenodd" clip-rule="evenodd" d="M33.6924 423.846H27.2308C26.4462 423.846 25.8462 424.446 25.8462 425.231V443.692C25.8462 443.923 26.077 444.154 26.3077 444.154H28.1539C28.4308 444.154 28.6154 443.969 28.6154 443.692V440.923C28.6154 440.646 28.8001 440.462 29.077 440.462H31.8462C32.1232 440.462 32.3078 440.646 32.3078 440.923V443.692C32.3078 443.969 32.4924 444.154 32.7693 444.154H34.1539C34.6616 444.154 35.077 443.738 35.077 443.231V425.231C35.077 424.446 34.477 423.846 33.6924 423.846ZM29.5383 438.385C29.5383 438.523 29.446 438.615 29.3076 438.615H27.923C27.7845 438.615 27.6922 438.523 27.6922 438.385V436.077C27.6922 435.938 27.7845 435.846 27.923 435.846H29.3076C29.446 435.846 29.5383 435.938 29.5383 436.077V438.385ZM29.5383 433.769C29.5383 433.908 29.446 434 29.3076 434H27.923C27.7845 434 27.6922 433.908 27.6922 433.769V431.462C27.6922 431.323 27.7845 431.231 27.923 431.231H29.3076C29.446 431.231 29.5383 431.323 29.5383 431.462V433.769ZM29.5383 429.154C29.5383 429.292 29.446 429.385 29.3076 429.385H27.923C27.7845 429.385 27.6922 429.292 27.6922 429.154V426.846C27.6922 426.708 27.7845 426.615 27.923 426.615H29.3076C29.446 426.615 29.5383 426.708 29.5383 426.846V429.154ZM33.2309 438.385C33.2309 438.523 33.1386 438.615 33.0002 438.615H31.6155C31.4771 438.615 31.3848 438.523 31.3848 438.385V436.077C31.3848 435.938 31.4771 435.846 31.6155 435.846H33.0002C33.1386 435.846 33.2309 435.938 33.2309 436.077V438.385ZM33.2309 433.769C33.2309 433.908 33.1386 434 33.0002 434H31.6155C31.4771 434 31.3848 433.908 31.3848 433.769V431.462C31.3848 431.323 31.4771 431.231 31.6155 431.231H33.0002C33.1386 431.231 33.2309 431.323 33.2309 431.462V433.769ZM33.2309 429.154C33.2309 429.292 33.1386 429.385 33.0002 429.385H31.6155C31.4771 429.385 31.3848 429.292 31.3848 429.154V426.846C31.3848 426.708 31.4771 426.615 31.6155 426.615H33.0002C33.1386 426.615 33.2309 426.708 33.2309 426.846V429.154ZM44.7692 428.462H38.3077C37.523 428.462 36.923 429.062 36.923 429.846V443.692C36.923 443.923 37.1538 444.154 37.3846 444.154H39.2307C39.5077 444.154 39.6923 443.969 39.6923 443.692V440.923C39.6923 440.646 39.8769 440.462 40.1538 440.462H42.9231C43.2 440.462 43.3846 440.646 43.3846 440.923V443.692C43.3846 443.969 43.5692 444.154 43.8462 444.154H45.2308C45.7385 444.154 46.1539 443.738 46.1539 443.231V429.846C46.1539 429.062 45.5539 428.462 44.7692 428.462ZM40.6158 438.385C40.6158 438.523 40.5235 438.615 40.385 438.615H39.0004C38.8619 438.615 38.7696 438.523 38.7696 438.385V436.077C38.7696 435.938 38.8619 435.846 39.0004 435.846H40.385C40.5235 435.846 40.6158 435.938 40.6158 436.077V438.385ZM40.6158 433.769C40.6158 433.908 40.5235 434 40.385 434H39.0004C38.8619 434 38.7696 433.908 38.7696 433.769V431.462C38.7696 431.323 38.8619 431.231 39.0004 431.231H40.385C40.5235 431.231 40.6158 431.323 40.6158 431.462V433.769ZM44.3078 438.385C44.3078 438.523 44.2155 438.615 44.077 438.615H42.6924C42.5539 438.615 42.4616 438.523 42.4616 438.385V436.077C42.4616 435.938 42.5539 435.846 42.6924 435.846H44.077C44.2155 435.846 44.3078 435.938 44.3078 436.077V438.385ZM44.3078 433.769C44.3078 433.908 44.2155 434 44.077 434H42.6924C42.5539 434 42.4616 433.908 42.4616 433.769V431.462C42.4616 431.323 42.5539 431.231 42.6924 431.231H44.077C44.2155 431.231 44.3078 431.323 44.3078 431.462V433.769Z" fill="white"/>
<path d="M13.3145 467L15.8145 459.954H16.8594V461.263H16.4834L14.6328 467H13.3145ZM14.5742 465.179L14.9014 464.207H18.1338L18.4609 465.179H14.5742ZM18.417 467L16.5664 461.263V459.954H17.2305L19.7354 467H18.417ZM22.8164 467.107C22.2793 467.107 21.8203 466.997 21.4395 466.775C21.0586 466.554 20.7673 466.235 20.5654 465.818C20.3636 465.402 20.2627 464.904 20.2627 464.324V464.314C20.2627 463.738 20.3636 463.245 20.5654 462.835C20.7673 462.425 21.0586 462.111 21.4395 461.893C21.8203 461.671 22.2777 461.561 22.8115 461.561C23.2705 461.561 23.6644 461.64 23.9932 461.8C24.3252 461.956 24.5872 462.174 24.7793 462.454C24.9746 462.731 25.0951 463.055 25.1406 463.426V463.445H23.9932L23.9883 463.431C23.9329 463.17 23.806 462.957 23.6074 462.791C23.4121 462.625 23.1484 462.542 22.8164 462.542C22.5397 462.542 22.3021 462.612 22.1035 462.752C21.9082 462.892 21.7585 463.094 21.6543 463.357C21.5501 463.621 21.498 463.94 21.498 464.314V464.324C21.498 464.702 21.5501 465.026 21.6543 465.296C21.7617 465.563 21.9131 465.768 22.1084 465.911C22.3037 466.051 22.5397 466.121 22.8164 466.121C23.1322 466.121 23.3861 466.049 23.5781 465.906C23.7734 465.763 23.9085 465.551 23.9834 465.271L23.9932 465.252L25.1357 465.247L25.1309 465.291C25.0723 465.652 24.9453 465.97 24.75 466.243C24.5579 466.517 24.3008 466.73 23.9785 466.883C23.6562 467.033 23.2689 467.107 22.8164 467.107ZM28.5879 467.107C28.0508 467.107 27.5918 466.997 27.2109 466.775C26.8301 466.554 26.5387 466.235 26.3369 465.818C26.1351 465.402 26.0342 464.904 26.0342 464.324V464.314C26.0342 463.738 26.1351 463.245 26.3369 462.835C26.5387 462.425 26.8301 462.111 27.2109 461.893C27.5918 461.671 28.0492 461.561 28.583 461.561C29.042 461.561 29.4359 461.64 29.7646 461.8C30.0967 461.956 30.3587 462.174 30.5508 462.454C30.7461 462.731 30.8665 463.055 30.9121 463.426V463.445H29.7646L29.7598 463.431C29.7044 463.17 29.5775 462.957 29.3789 462.791C29.1836 462.625 28.9199 462.542 28.5879 462.542C28.3112 462.542 28.0736 462.612 27.875 462.752C27.6797 462.892 27.5299 463.094 27.4258 463.357C27.3216 463.621 27.2695 463.94 27.2695 464.314V464.324C27.2695 464.702 27.3216 465.026 27.4258 465.296C27.5332 465.563 27.6846 465.768 27.8799 465.911C28.0752 466.051 28.3112 466.121 28.5879 466.121C28.9036 466.121 29.1576 466.049 29.3496 465.906C29.5449 465.763 29.68 465.551 29.7549 465.271L29.7646 465.252L30.9072 465.247L30.9023 465.291C30.8438 465.652 30.7168 465.97 30.5215 466.243C30.3294 466.517 30.0723 466.73 29.75 466.883C29.4277 467.033 29.0404 467.107 28.5879 467.107ZM34.374 467.107C33.8434 467.107 33.3861 466.997 33.002 466.775C32.6178 466.551 32.3216 466.232 32.1133 465.818C31.9082 465.405 31.8057 464.91 31.8057 464.334V464.324C31.8057 463.755 31.9098 463.263 32.1182 462.85C32.3265 462.433 32.6211 462.114 33.002 461.893C33.3861 461.671 33.8434 461.561 34.374 461.561C34.9046 461.561 35.3604 461.671 35.7412 461.893C36.1253 462.114 36.4215 462.431 36.6299 462.845C36.8382 463.258 36.9424 463.751 36.9424 464.324V464.334C36.9424 464.91 36.8382 465.405 36.6299 465.818C36.4248 466.232 36.1302 466.551 35.7461 466.775C35.3652 466.997 34.9079 467.107 34.374 467.107ZM34.374 466.121C34.654 466.121 34.8916 466.051 35.0869 465.911C35.2855 465.768 35.4368 465.564 35.541 465.301C35.6452 465.034 35.6973 464.713 35.6973 464.339V464.329C35.6973 463.951 35.6452 463.631 35.541 463.367C35.4368 463.1 35.2855 462.897 35.0869 462.757C34.8916 462.614 34.654 462.542 34.374 462.542C34.0941 462.542 33.8548 462.614 33.6562 462.757C33.4577 462.897 33.3063 463.1 33.2021 463.367C33.098 463.631 33.0459 463.951 33.0459 464.329V464.339C33.0459 464.713 33.098 465.034 33.2021 465.301C33.3063 465.568 33.4561 465.771 33.6514 465.911C33.8499 466.051 34.0908 466.121 34.374 466.121ZM39.9307 467.107C39.5335 467.107 39.1999 467.031 38.9297 466.878C38.6595 466.722 38.4561 466.495 38.3193 466.199C38.1826 465.9 38.1143 465.538 38.1143 465.115V461.663H39.3301V464.837C39.3301 465.25 39.4115 465.561 39.5742 465.77C39.737 465.978 40.0023 466.082 40.3701 466.082C40.5654 466.082 40.738 466.053 40.8877 465.994C41.0407 465.932 41.1676 465.844 41.2686 465.73C41.3695 465.617 41.446 465.48 41.498 465.32C41.5501 465.158 41.5762 464.975 41.5762 464.773V461.663H42.792V467H41.5762V466.189H41.4932C41.4118 466.378 41.2979 466.543 41.1514 466.683C41.0049 466.819 40.8291 466.925 40.624 467C40.4189 467.072 40.1878 467.107 39.9307 467.107ZM44.2764 467V461.663H45.4922V462.483H45.5752C45.7021 462.194 45.8942 461.967 46.1514 461.805C46.4085 461.642 46.7292 461.561 47.1133 461.561C47.709 461.561 48.1647 461.733 48.4805 462.078C48.7962 462.423 48.9541 462.913 48.9541 463.548V467H47.7383V463.831C47.7383 463.414 47.6504 463.102 47.4746 462.894C47.3021 462.685 47.0319 462.581 46.6641 462.581C46.4232 462.581 46.2148 462.635 46.0391 462.742C45.8633 462.85 45.7282 463.001 45.6338 463.196C45.5394 463.392 45.4922 463.623 45.4922 463.89V467H44.2764ZM52.4893 467.024C51.8773 467.024 51.4362 466.912 51.166 466.688C50.8958 466.463 50.7607 466.095 50.7607 465.584V462.605H49.9307V461.663H50.7607V460.354H51.9961V461.663H53.1191V462.605H51.9961V465.296C51.9961 465.56 52.0514 465.753 52.1621 465.877C52.276 465.997 52.4583 466.058 52.709 466.058C52.7969 466.058 52.8685 466.056 52.9238 466.053C52.9824 466.046 53.0475 466.04 53.1191 466.033V466.971C53.0345 466.987 52.9368 467 52.8262 467.01C52.7188 467.02 52.6064 467.024 52.4893 467.024ZM56.2832 467.107C55.8307 467.107 55.4401 467.044 55.1113 466.917C54.7858 466.787 54.5286 466.608 54.3398 466.38C54.151 466.149 54.0387 465.882 54.0029 465.579V465.569H55.209L55.2139 465.579C55.279 465.765 55.401 465.916 55.5801 466.033C55.7591 466.15 56 466.209 56.3027 466.209C56.5046 466.209 56.682 466.181 56.835 466.126C56.988 466.067 57.1084 465.988 57.1963 465.887C57.2842 465.786 57.3281 465.669 57.3281 465.535V465.525C57.3281 465.369 57.2646 465.239 57.1377 465.135C57.0107 465.027 56.8008 464.941 56.5078 464.876L55.6436 464.681C55.305 464.606 55.0251 464.502 54.8037 464.368C54.5824 464.235 54.4163 464.07 54.3057 463.875C54.1982 463.68 54.1445 463.452 54.1445 463.191V463.187C54.1445 462.864 54.234 462.581 54.4131 462.337C54.5954 462.093 54.8477 461.902 55.1699 461.766C55.4922 461.629 55.8633 461.561 56.2832 461.561C56.7161 461.561 57.0889 461.626 57.4014 461.756C57.7139 461.886 57.958 462.065 58.1338 462.293C58.3096 462.521 58.4105 462.78 58.4365 463.069V463.079H57.2939L57.2891 463.064C57.2435 462.895 57.1344 462.752 56.9619 462.635C56.7926 462.514 56.5648 462.454 56.2783 462.454C56.0993 462.454 55.9382 462.482 55.7949 462.537C55.6549 462.592 55.5443 462.671 55.4629 462.771C55.3848 462.869 55.3457 462.985 55.3457 463.118V463.123C55.3457 463.227 55.3717 463.318 55.4238 463.396C55.4792 463.475 55.5654 463.543 55.6826 463.602C55.7998 463.66 55.9544 463.712 56.1465 463.758L57.0107 463.948C57.5348 464.065 57.9222 464.24 58.1729 464.471C58.4235 464.702 58.5488 465.013 58.5488 465.403V465.413C58.5488 465.752 58.4512 466.048 58.2559 466.302C58.0605 466.556 57.792 466.754 57.4502 466.897C57.1084 467.037 56.7194 467.107 56.2832 467.107Z" fill="white"/>
<path fill-rule="evenodd" clip-rule="evenodd" d="M31.3385 498.922C30.6923 497.953 30.3693 496.845 30.3693 495.599C30.3693 493.475 31.2462 491.721 32.6308 490.66C32.1693 489.829 31.2462 489.229 30.0462 489.229C28.0154 489.229 26.8615 490.891 26.8615 492.783C26.8615 493.799 27.1846 494.676 27.8769 495.276C28.2462 495.645 28.5692 496.107 28.5692 496.568C28.5692 497.03 28.3846 497.491 27.2308 497.999C25.5692 498.738 24.0462 499.753 24 501.276C24.0462 502.292 24.6923 503.076 25.6615 503.076H27.1846C27.4154 503.076 27.6462 502.938 27.7846 502.707C28.5231 501.369 29.9077 500.538 31.0616 499.938C31.4769 499.753 31.5693 499.245 31.3385 498.922ZM44.8154 497.999C43.6615 497.491 43.4769 497.076 43.4769 496.568C43.4769 496.06 43.8 495.599 44.1692 495.276C44.8615 494.629 45.1846 493.799 45.1846 492.783C45.1846 490.891 44.0769 489.229 42 489.229C40.8 489.229 39.8769 489.829 39.3692 490.66C40.7538 491.721 41.6308 493.475 41.6308 495.599C41.6308 496.845 41.3077 497.953 40.6615 498.922C40.4308 499.291 40.5692 499.753 40.9385 499.938C42.0923 500.492 43.4769 501.369 44.2154 502.707C44.3539 502.938 44.5846 503.076 44.8154 503.076H46.3385C47.3077 503.076 47.9539 502.292 47.9539 501.276C48 499.753 46.4769 498.738 44.8154 497.999ZM39.0925 501.369C37.8463 500.815 37.6156 500.307 37.6156 499.799C37.6156 499.245 37.9848 498.738 38.4002 498.368C39.1387 497.676 39.554 496.707 39.554 495.599C39.554 493.522 38.3079 491.722 36.0463 491.722C33.7848 491.722 32.5386 493.522 32.5386 495.599C32.5386 496.707 32.954 497.676 33.6925 498.368C34.1079 498.784 34.4771 499.292 34.4771 499.799C34.4771 500.353 34.2925 500.815 33.0002 501.369C31.154 502.153 29.4002 503.03 29.354 504.692C29.354 505.8 30.1848 506.723 31.2463 506.723H40.8464C41.9079 506.723 42.7387 505.8 42.7387 504.692C42.6925 503.077 40.9387 502.2 39.0925 501.369Z" fill="white"/>
<path d="M17.5771 531.176C16.9098 531.176 16.3337 531.026 15.8486 530.727C15.3669 530.427 14.9941 530.002 14.7305 529.452C14.4701 528.899 14.3398 528.243 14.3398 527.484V527.475C14.3398 526.713 14.4701 526.057 14.7305 525.507C14.9941 524.953 15.3669 524.527 15.8486 524.228C16.3304 523.928 16.9049 523.778 17.5723 523.778C18.1061 523.778 18.5879 523.884 19.0176 524.096C19.4473 524.304 19.7972 524.594 20.0674 524.965C20.3376 525.333 20.5003 525.756 20.5557 526.234L20.5508 526.273H19.3203L19.3154 526.249C19.2568 525.972 19.1462 525.731 18.9834 525.526C18.8206 525.318 18.6188 525.157 18.3779 525.043C18.137 524.926 17.8685 524.867 17.5723 524.867C17.1751 524.867 16.8301 524.973 16.5371 525.185C16.2441 525.396 16.0179 525.697 15.8584 526.088C15.7021 526.475 15.624 526.936 15.624 527.47V527.479C15.624 528.013 15.7021 528.476 15.8584 528.866C16.0179 529.257 16.2441 529.558 16.5371 529.77C16.8301 529.981 17.1768 530.087 17.5771 530.087C17.8766 530.087 18.1452 530.035 18.3828 529.931C18.6237 529.826 18.8239 529.68 18.9834 529.491C19.1462 529.299 19.2568 529.075 19.3154 528.817L19.3252 528.788H20.5557V528.827C20.4938 529.296 20.3294 529.706 20.0625 530.058C19.7956 530.409 19.4505 530.684 19.0273 530.883C18.6042 531.078 18.1208 531.176 17.5771 531.176ZM24.1396 531.107C23.609 531.107 23.1517 530.997 22.7676 530.775C22.3835 530.551 22.0872 530.232 21.8789 529.818C21.6738 529.405 21.5713 528.91 21.5713 528.334V528.324C21.5713 527.755 21.6755 527.263 21.8838 526.85C22.0921 526.433 22.3867 526.114 22.7676 525.893C23.1517 525.671 23.609 525.561 24.1396 525.561C24.6702 525.561 25.126 525.671 25.5068 525.893C25.891 526.114 26.1872 526.431 26.3955 526.845C26.6038 527.258 26.708 527.751 26.708 528.324V528.334C26.708 528.91 26.6038 529.405 26.3955 529.818C26.1904 530.232 25.8958 530.551 25.5117 530.775C25.1309 530.997 24.6735 531.107 24.1396 531.107ZM24.1396 530.121C24.4196 530.121 24.6572 530.051 24.8525 529.911C25.0511 529.768 25.2025 529.564 25.3066 529.301C25.4108 529.034 25.4629 528.713 25.4629 528.339V528.329C25.4629 527.951 25.4108 527.631 25.3066 527.367C25.2025 527.1 25.0511 526.897 24.8525 526.757C24.6572 526.614 24.4196 526.542 24.1396 526.542C23.8597 526.542 23.6204 526.614 23.4219 526.757C23.2233 526.897 23.0719 527.1 22.9678 527.367C22.8636 527.631 22.8115 527.951 22.8115 528.329V528.339C22.8115 528.713 22.8636 529.034 22.9678 529.301C23.0719 529.568 23.2217 529.771 23.417 529.911C23.6156 530.051 23.8564 530.121 24.1396 530.121ZM27.9287 531V525.663H29.1445V526.483H29.2275C29.3545 526.194 29.5465 525.967 29.8037 525.805C30.0609 525.642 30.3815 525.561 30.7656 525.561C31.3613 525.561 31.8171 525.733 32.1328 526.078C32.4486 526.423 32.6064 526.913 32.6064 527.548V531H31.3906V527.831C31.3906 527.414 31.3027 527.102 31.127 526.894C30.9544 526.685 30.6842 526.581 30.3164 526.581C30.0755 526.581 29.8672 526.635 29.6914 526.742C29.5156 526.85 29.3805 527.001 29.2861 527.196C29.1917 527.392 29.1445 527.623 29.1445 527.89V531H27.9287ZM36.1416 531.024C35.5296 531.024 35.0885 530.912 34.8184 530.688C34.5482 530.463 34.4131 530.095 34.4131 529.584V526.605H33.583V525.663H34.4131V524.354H35.6484V525.663H36.7715V526.605H35.6484V529.296C35.6484 529.56 35.7038 529.753 35.8145 529.877C35.9284 529.997 36.1107 530.058 36.3613 530.058C36.4492 530.058 36.5208 530.056 36.5762 530.053C36.6348 530.046 36.6999 530.04 36.7715 530.033V530.971C36.6868 530.987 36.5892 531 36.4785 531.01C36.3711 531.02 36.2588 531.024 36.1416 531.024ZM39.4424 531.088C39.1071 531.088 38.806 531.023 38.5391 530.893C38.2754 530.762 38.0671 530.578 37.9141 530.341C37.7643 530.1 37.6895 529.817 37.6895 529.491V529.481C37.6895 529.166 37.7676 528.894 37.9238 528.666C38.0801 528.435 38.3096 528.254 38.6123 528.124C38.915 527.994 39.2829 527.917 39.7158 527.895L41.6885 527.772V528.573L39.8867 528.69C39.5449 528.71 39.2926 528.782 39.1299 528.905C38.9671 529.029 38.8857 529.201 38.8857 529.423V529.433C38.8857 529.66 38.972 529.838 39.1445 529.965C39.3203 530.092 39.5433 530.155 39.8135 530.155C40.0576 530.155 40.2757 530.106 40.4678 530.009C40.6598 529.911 40.8112 529.779 40.9219 529.613C41.0326 529.444 41.0879 529.254 41.0879 529.042V527.353C41.0879 527.086 41.0033 526.882 40.834 526.742C40.6647 526.599 40.4141 526.527 40.082 526.527C39.8053 526.527 39.5791 526.576 39.4033 526.674C39.2275 526.768 39.1087 526.903 39.0469 527.079L39.042 527.099H37.8945L37.8994 527.055C37.9385 526.755 38.0557 526.493 38.251 526.269C38.4463 526.044 38.7051 525.87 39.0273 525.746C39.3496 525.622 39.7207 525.561 40.1406 525.561C40.6029 525.561 40.9935 525.632 41.3125 525.775C41.6315 525.915 41.874 526.12 42.04 526.391C42.2061 526.658 42.2891 526.978 42.2891 527.353V531H41.0879V530.268H41.0049C40.9072 530.437 40.7803 530.583 40.624 530.707C40.471 530.831 40.2952 530.925 40.0967 530.99C39.8981 531.055 39.68 531.088 39.4424 531.088ZM46.0391 531.107C45.502 531.107 45.043 530.997 44.6621 530.775C44.2812 530.554 43.9899 530.235 43.7881 529.818C43.5863 529.402 43.4854 528.904 43.4854 528.324V528.314C43.4854 527.738 43.5863 527.245 43.7881 526.835C43.9899 526.425 44.2812 526.111 44.6621 525.893C45.043 525.671 45.5003 525.561 46.0342 525.561C46.4932 525.561 46.887 525.64 47.2158 525.8C47.5479 525.956 47.8099 526.174 48.002 526.454C48.1973 526.731 48.3177 527.055 48.3633 527.426V527.445H47.2158L47.2109 527.431C47.1556 527.17 47.0286 526.957 46.8301 526.791C46.6348 526.625 46.3711 526.542 46.0391 526.542C45.7624 526.542 45.5247 526.612 45.3262 526.752C45.1309 526.892 44.9811 527.094 44.877 527.357C44.7728 527.621 44.7207 527.94 44.7207 528.314V528.324C44.7207 528.702 44.7728 529.026 44.877 529.296C44.9844 529.563 45.1357 529.768 45.3311 529.911C45.5264 530.051 45.7624 530.121 46.0391 530.121C46.3548 530.121 46.6087 530.049 46.8008 529.906C46.9961 529.763 47.1312 529.551 47.2061 529.271L47.2158 529.252L48.3584 529.247L48.3535 529.291C48.2949 529.652 48.168 529.97 47.9727 530.243C47.7806 530.517 47.5234 530.73 47.2012 530.883C46.8789 531.033 46.4915 531.107 46.0391 531.107ZM51.6885 531.024C51.0765 531.024 50.6354 530.912 50.3652 530.688C50.0951 530.463 49.96 530.095 49.96 529.584V526.605H49.1299V525.663H49.96V524.354H51.1953V525.663H52.3184V526.605H51.1953V529.296C51.1953 529.56 51.2507 529.753 51.3613 529.877C51.4753 529.997 51.6576 530.058 51.9082 530.058C51.9961 530.058 52.0677 530.056 52.123 530.053C52.1816 530.046 52.2467 530.04 52.3184 530.033V530.971C52.2337 530.987 52.1361 531 52.0254 531.01C51.918 531.02 51.8057 531.024 51.6885 531.024ZM55.4824 531.107C55.0299 531.107 54.6393 531.044 54.3105 530.917C53.985 530.787 53.7279 530.608 53.5391 530.38C53.3503 530.149 53.238 529.882 53.2021 529.579V529.569H54.4082L54.4131 529.579C54.4782 529.765 54.6003 529.916 54.7793 530.033C54.9583 530.15 55.1992 530.209 55.502 530.209C55.7038 530.209 55.8812 530.181 56.0342 530.126C56.1872 530.067 56.3076 529.988 56.3955 529.887C56.4834 529.786 56.5273 529.669 56.5273 529.535V529.525C56.5273 529.369 56.4639 529.239 56.3369 529.135C56.21 529.027 56 528.941 55.707 528.876L54.8428 528.681C54.5042 528.606 54.2243 528.502 54.0029 528.368C53.7816 528.235 53.6156 528.07 53.5049 527.875C53.3975 527.68 53.3438 527.452 53.3438 527.191V527.187C53.3438 526.864 53.4333 526.581 53.6123 526.337C53.7946 526.093 54.0469 525.902 54.3691 525.766C54.6914 525.629 55.0625 525.561 55.4824 525.561C55.9154 525.561 56.2881 525.626 56.6006 525.756C56.9131 525.886 57.1572 526.065 57.333 526.293C57.5088 526.521 57.6097 526.78 57.6357 527.069V527.079H56.4932L56.4883 527.064C56.4427 526.895 56.3337 526.752 56.1611 526.635C55.9919 526.514 55.764 526.454 55.4775 526.454C55.2985 526.454 55.1374 526.482 54.9941 526.537C54.8542 526.592 54.7435 526.671 54.6621 526.771C54.584 526.869 54.5449 526.985 54.5449 527.118V527.123C54.5449 527.227 54.571 527.318 54.623 527.396C54.6784 527.475 54.7646 527.543 54.8818 527.602C54.999 527.66 55.1536 527.712 55.3457 527.758L56.21 527.948C56.734 528.065 57.1214 528.24 57.3721 528.471C57.6227 528.702 57.748 529.013 57.748 529.403V529.413C57.748 529.752 57.6504 530.048 57.4551 530.302C57.2598 530.556 56.9912 530.754 56.6494 530.897C56.3076 531.037 55.9186 531.107 55.4824 531.107Z" fill="white"/>
<path fill-rule="evenodd" clip-rule="evenodd" d="M27.6923 559.231C29.2154 559.231 30.4616 560.477 30.4616 562C30.4616 563.523 29.2154 564.769 27.6923 564.769C26.1692 564.769 24.9231 563.523 24.9231 562C24.9231 560.477 26.1692 559.231 27.6923 559.231ZM36 559.231C37.5231 559.231 38.7692 560.477 38.7692 562C38.7692 563.523 37.5231 564.769 36 564.769C34.4769 564.769 33.2308 563.523 33.2308 562C33.2308 560.477 34.4769 559.231 36 559.231ZM44.3077 559.231C45.8308 559.231 47.0769 560.477 47.0769 562C47.0769 563.523 45.8308 564.769 44.3077 564.769C42.7846 564.769 41.5385 563.523 41.5385 562C41.5385 560.477 42.7846 559.231 44.3077 559.231Z" fill="white"/>
<path d="M24.3887 595V587.954H25.834L27.9531 593.379H28.0361L30.1504 587.954H31.5957V595H30.4629V589.99H29.8477L31.0977 588.149L28.4219 595H27.5625L24.8916 588.149L26.1416 589.99H25.5215V595H24.3887ZM35.5117 595.107C34.9811 595.107 34.5238 594.997 34.1396 594.775C33.7555 594.551 33.4593 594.232 33.251 593.818C33.0459 593.405 32.9434 592.91 32.9434 592.334V592.324C32.9434 591.755 33.0475 591.263 33.2559 590.85C33.4642 590.433 33.7588 590.114 34.1396 589.893C34.5238 589.671 34.9811 589.561 35.5117 589.561C36.0423 589.561 36.498 589.671 36.8789 589.893C37.263 590.114 37.5592 590.431 37.7676 590.845C37.9759 591.258 38.0801 591.751 38.0801 592.324V592.334C38.0801 592.91 37.9759 593.405 37.7676 593.818C37.5625 594.232 37.2679 594.551 36.8838 594.775C36.5029 594.997 36.0456 595.107 35.5117 595.107ZM35.5117 594.121C35.7917 594.121 36.0293 594.051 36.2246 593.911C36.4232 593.768 36.5745 593.564 36.6787 593.301C36.7829 593.034 36.835 592.713 36.835 592.339V592.329C36.835 591.951 36.7829 591.631 36.6787 591.367C36.5745 591.1 36.4232 590.897 36.2246 590.757C36.0293 590.614 35.7917 590.542 35.5117 590.542C35.2318 590.542 34.9925 590.614 34.7939 590.757C34.5954 590.897 34.444 591.1 34.3398 591.367C34.2357 591.631 34.1836 591.951 34.1836 592.329V592.339C34.1836 592.713 34.2357 593.034 34.3398 593.301C34.444 593.568 34.5938 593.771 34.7891 593.911C34.9876 594.051 35.2285 594.121 35.5117 594.121ZM39.3008 595V589.663H40.5166V590.483H40.5996C40.6908 590.197 40.8535 589.974 41.0879 589.814C41.3255 589.655 41.6201 589.575 41.9717 589.575C42.0628 589.575 42.1523 589.582 42.2402 589.595C42.3314 589.604 42.4062 589.618 42.4648 589.634V590.723C42.3672 590.7 42.2679 590.684 42.167 590.674C42.0693 590.661 41.9668 590.654 41.8594 590.654C41.5892 590.654 41.3532 590.705 41.1514 590.806C40.9495 590.907 40.7933 591.051 40.6826 591.24C40.5719 591.426 40.5166 591.646 40.5166 591.899V595H39.3008ZM45.6094 595.107C45.0788 595.107 44.623 594.995 44.2422 594.771C43.8646 594.546 43.5732 594.227 43.3682 593.813C43.1631 593.4 43.0605 592.91 43.0605 592.344V592.339C43.0605 591.779 43.1615 591.291 43.3633 590.874C43.5684 590.457 43.8581 590.135 44.2324 589.907C44.6068 589.676 45.0462 589.561 45.5508 589.561C46.0586 589.561 46.4948 589.673 46.8594 589.897C47.2272 590.119 47.5104 590.43 47.709 590.83C47.9076 591.23 48.0068 591.699 48.0068 592.236V592.637H43.6709V591.821H47.4111L46.835 592.583V592.1C46.835 591.745 46.7812 591.45 46.6738 591.216C46.5664 590.981 46.4167 590.806 46.2246 590.688C46.0358 590.571 45.8161 590.513 45.5654 590.513C45.3148 590.513 45.0918 590.575 44.8965 590.698C44.7044 590.819 44.5514 590.998 44.4375 591.235C44.3268 591.47 44.2715 591.758 44.2715 592.1V592.588C44.2715 592.917 44.3268 593.198 44.4375 593.433C44.5482 593.664 44.7044 593.843 44.9062 593.97C45.1113 594.093 45.3538 594.155 45.6338 594.155C45.8519 594.155 46.0391 594.124 46.1953 594.062C46.3548 593.997 46.4834 593.921 46.5811 593.833C46.6787 593.742 46.7471 593.656 46.7861 593.574L46.8008 593.54H47.9531L47.9434 593.584C47.901 593.757 47.8229 593.932 47.709 594.111C47.5983 594.287 47.4469 594.451 47.2549 594.604C47.0661 594.754 46.835 594.876 46.5615 594.971C46.2881 595.062 45.9707 595.107 45.6094 595.107Z" fill="white"/>
</svg>
