<svg fill="none" height="36" viewBox="0 0 36 36" width="36" xmlns="http://www.w3.org/2000/svg"><path d="m18 9c4.9706 0 9 4.0294 9 9s-4.0294 9-9 9-9-4.0294-9-9 4.0294-9 9-9zm0 1.5c-4.1421 0-7.5 3.3579-7.5 7.5s3.3579 7.5 7.5 7.5 7.5-3.3579 7.5-7.5-3.3579-7.5-7.5-7.5zm2.4395 9.2656c.1294-.3934.5538-.6078.9472-.4785.3933.1295.6078.5539.4785.9473-.6068 1.8447-2.2391 2.7655-3.8379 2.7656-1.5988 0-3.231-.9209-3.8378-2.7656-.1294-.3935.085-.8179.4785-.9473.3933-.1292.8178.0852.9472.4785.3801 1.1551 1.3795 1.7344 2.4121 1.7344 1.0326-.0001 2.0322-.5793 2.4122-1.7344zm-4.9395-5.2656c.8284 0 1.5.6716 1.5 1.5s-.6716 1.5-1.5 1.5-1.5-.6716-1.5-1.5.6716-1.5 1.5-1.5zm5 0c.8284 0 1.5.6716 1.5 1.5s-.6716 1.5-1.5 1.5-1.5-.6716-1.5-1.5.6716-1.5 1.5-1.5z" fill="#454447"/></svg>