<svg fill="none" height="36" viewBox="0 0 36 36" width="36" xmlns="http://www.w3.org/2000/svg"><path d="m18 9c4.9706 0 9 4.0294 9 9v.6445c0 1.8531-1.5024 3.3555-3.3555 3.3555-.9004-.0001-1.6943-.4512-2.1718-1.1387-.8254 1.0006-2.0744 1.6387-3.4727 1.6387-2.4853 0-4.5-2.0147-4.5-4.5s2.0147-4.5 4.5-4.5c1.1559 0 2.2099.436 3.0068 1.1523.0479-.368.3621-.6523.7432-.6523.4142 0 .75.3358.75.75v4.6055c.0001.632.5125 1.1444 1.1445 1.1445 1.0247 0 1.8555-.8308 1.8555-1.8555v-.6445c0-4.1421-3.3579-7.5-7.5-7.5s-7.5 3.3579-7.5 7.5 3.3579 7.5 7.5 7.5c1.6097 0 3.0992-.5061 4.3203-1.3682.3383-.2388.806-.1585 1.0449.1797.2389.3384.1587.807-.1797 1.0459-1.4659 1.0349-3.256 1.6426-5.1855 1.6426-4.9706 0-9-4.0294-9-9s4.0294-9 9-9zm0 6c-1.6569 0-3 1.3431-3 3s1.3431 3 3 3 3-1.3431 3-3-1.3431-3-3-3z" fill="#454447"/></svg>