<svg fill="none" height="36" viewBox="0 0 36 36" width="36" xmlns="http://www.w3.org/2000/svg"><path d="m22.323 14.7129c.9761-.3596 2.0441-.3879 3.0381-.0811 1.5685.4845 2.6385 1.9346 2.6387 3.5762v6.792c-.0001.4142-.3359.75-.75.75-.4141-.0001-.75-.3359-.75-.75v-.748c-.8487.6364-1.8169 1.0999-2.8467 1.3574-1.183.2956-2.4319-.1547-3.1504-1.1426-1.6541-2.2752-.0289-5.4666 2.7842-5.4668h3.2129v-.792c-.0002-.9836-.6412-1.8523-1.5811-2.1426-.6795-.2098-1.4098-.1902-2.0771.0557l-.2422.0889c-.6333.2333-1.1265.7425-1.3399 1.3828l-.0478.1445c-.1311.3929-.5563.6056-.9492.4746-.3928-.1311-.6055-.5564-.4747-.9492l.0489-.1445c.3575-1.0726 1.1833-1.9246 2.2441-2.3155zm-10.2354-2.7393c.4387-1.385 2.3939-1.3996 2.8536-.0215l4.2705 12.8106c.131.393-.0817.8182-.4746.9492-.393.1309-.8183-.0817-.9493-.4746l-1.1621-3.4873h-6.0605l-1.1006 3.4766c-.12512.3947-.54658.6133-.94141.4882-.39462-.1252-.61328-.5466-.48828-.9414zm11.1993 8.5264c-1.5872.0002-2.5046 1.8012-1.5713 3.085.3574.4915.9815.7171 1.5732.5693.9012-.2253 1.7459-.6428 2.4707-1.2227l.7403-.5927v-1.8389zm-12.2461-.25h5.0849l-2.6074-7.8232z" fill="#454447"/></svg>