<svg fill="none" height="36" viewBox="0 0 36 36" width="36" xmlns="http://www.w3.org/2000/svg"><path d="m23.75 15.5c.4142 0 .75.3358.75.75v.25c0 3.3361-2.5135 6.0831-5.75 6.4551v1.5449h1.5c.4142 0 .75.3358.75.75s-.3358.75-.75.75h-4.5c-.4142 0-.75-.3358-.75-.75s.3358-.75.75-.75h1.5v-1.5449c-3.2365-.372-5.75-3.119-5.75-6.4551v-.25c0-.4142.3358-.75.75-.75s.75.3358.75.75v.25c0 2.7614 2.2386 5 5 5s5-2.2386 5-5v-.25c0-.4142.3358-.75.75-.75zm-5.75-5.5c1.933 0 3.5 1.567 3.5 3.5v3c0 1.933-1.567 3.5-3.5 3.5s-3.5-1.567-3.5-3.5v-3c0-1.933 1.567-3.5 3.5-3.5zm0 1.5c-1.1046 0-2 .8954-2 2v3c0 1.1046.8954 2 2 2s2-.8954 2-2v-3c0-1.1046-.8954-2-2-2z" fill="#454447"/></svg>