<svg width="520" height="520" viewBox="0 0 520 520" fill="none" xmlns="http://www.w3.org/2000/svg">
<path d="M164 100H196C198.122 100 200.157 99.1571 201.657 97.6569C203.157 96.1566 204 94.1217 204 92V68H316V92C316 94.1217 316.843 96.1566 318.343 97.6569C319.843 99.1571 321.878 100 324 100H356C358.122 100 360.157 99.1571 361.657 97.6569C363.157 96.1566 364 94.1217 364 92V68C364 55.2696 358.943 43.0606 349.941 34.0589C340.939 25.0571 328.73 20 316 20H204C191.27 20 179.061 25.0571 170.059 34.0589C161.057 43.0606 156 55.2696 156 68V92C156 94.1217 156.843 96.1566 158.343 97.6569C159.843 99.1571 161.878 100 164 100ZM260 367C256.399 367.006 252.882 368.091 249.904 370.117C246.926 372.143 244.624 375.015 243.296 378.363C241.968 381.711 241.675 385.38 242.454 388.896C243.234 392.412 245.05 395.613 247.669 398.086C250.287 400.559 253.587 402.19 257.142 402.767C260.697 403.345 264.343 402.842 267.609 401.325C270.876 399.808 273.612 397.346 275.465 394.258C277.317 391.169 278.2 387.596 278 384C277.744 379.402 275.735 375.076 272.387 371.914C269.039 368.751 264.606 366.993 260 367ZM452 148H68C55.2696 148 43.0606 153.057 34.0589 162.059C25.0571 171.061 20 183.27 20 196V452C20 464.73 25.0571 476.939 34.0589 485.941C43.0606 494.943 55.2696 500 68 500H452C464.73 500 476.939 494.943 485.941 485.941C494.943 476.939 500 464.73 500 452V196C500 183.27 494.943 171.061 485.941 162.059C476.939 153.057 464.73 148 452 148ZM397 450H123C108 450 100 431 108 417L245 196C246.45 193.281 248.612 191.008 251.254 189.423C253.896 187.837 256.919 187 260 187C263.081 187 266.104 187.837 268.746 189.423C271.388 191.008 273.55 193.281 275 196L412 417C414.114 419.994 415.407 423.49 415.751 427.139C416.095 430.788 415.479 434.464 413.962 437.801C412.445 441.138 410.081 444.019 407.106 446.16C404.13 448.3 400.646 449.624 397 450Z" fill="#056BFE"/>
<path d="M272 265H248C244.686 265 242 267.686 242 271V349C242 352.314 244.686 355 248 355H272C275.314 355 278 352.314 278 349V271C278 267.686 275.314 265 272 265Z" fill="#056BFE"/>
</svg>
