<svg width="520" height="520" viewBox="0 0 520 520" fill="none" xmlns="http://www.w3.org/2000/svg">
<path d="M452 148C464.73 148 476.94 153.057 485.941 162.059C494.943 171.06 500 183.27 500 196V452C500 464.73 494.943 476.94 485.941 485.941C476.94 494.943 464.73 500 452 500H68C55.2696 500 43.0603 494.943 34.0586 485.941C25.0568 476.94 20 464.73 20 452V196C20 183.27 25.0568 171.06 34.0586 162.059C43.0603 153.057 55.2696 148 68 148H452ZM352.153 242.473C349.111 239.176 343.909 239.176 340.867 242.473L281.078 307.273C276.528 312.205 280.018 320.202 286.721 320.202H311.509C311.509 375.016 280.026 422.502 234.175 445.383C227.055 448.936 229.608 459.685 237.558 459.932C239.031 459.978 240.511 460 241.997 460C319.053 460 381.512 397.414 381.512 320.202H406.3C413.002 320.202 416.492 312.205 411.942 307.273L352.153 242.473ZM278.003 192C200.947 192 138.489 254.586 138.489 331.798H113.7C106.998 331.798 103.508 339.795 108.058 344.727L167.847 409.527C170.889 412.824 176.091 412.824 179.133 409.527L238.922 344.727C243.472 339.796 239.982 331.798 233.279 331.798H208.491C208.491 276.984 239.974 229.498 285.825 206.617C292.945 203.064 290.392 192.315 282.442 192.068C280.969 192.022 279.489 192 278.003 192ZM316 20C328.73 20 340.94 25.0568 349.941 34.0586C358.943 43.0603 364 55.2696 364 68V92C364 94.1217 363.158 96.1569 361.657 97.6572C360.157 99.1575 358.122 100 356 100H324C321.878 100 319.843 99.1575 318.343 97.6572C316.842 96.1569 316 94.1217 316 92V68H204V92C204 94.1217 203.158 96.1569 201.657 97.6572C200.157 99.1575 198.122 100 196 100H164C161.878 100 159.843 99.1575 158.343 97.6572C156.842 96.1569 156 94.1217 156 92V68C156 55.2696 161.057 43.0603 170.059 34.0586C179.06 25.0568 191.27 20 204 20H316Z" fill="#747574"/>
</svg>
