<svg width="480" height="480" viewBox="0 0 480 480" fill="none" xmlns="http://www.w3.org/2000/svg">
<g clip-path="url(#clip0_1_2)">
<path d="M144.172 80.3066H176.106C177.17 80.3641 178.233 80.1972 179.228 79.8162C180.223 79.4356 181.126 78.8497 181.879 78.0964C182.633 77.3431 183.218 76.4398 183.599 75.4452C183.98 74.4506 184.147 73.3868 184.089 72.3234V48.3732H295.857V72.3234C295.799 73.3868 295.966 74.4506 296.347 75.4452C296.728 76.4398 297.314 77.3431 298.067 78.0964C298.82 78.8497 299.723 79.4356 300.718 79.8162C301.713 80.1972 302.777 80.3641 303.84 80.3066H335.773C336.837 80.3641 337.901 80.1972 338.895 79.8162C339.89 79.4356 340.793 78.8497 341.547 78.0964C342.3 77.3431 342.885 76.4398 343.266 75.4452C343.647 74.4506 343.814 73.3868 343.757 72.3234V48.3732C343.73 35.6774 338.675 23.509 329.698 14.5317C320.721 5.5544 308.553 0.499308 295.857 0.472973H184.089C171.394 0.499308 159.225 5.5544 150.248 14.5317C141.271 23.509 136.216 35.6774 136.189 48.3732V72.3234C136.132 73.3868 136.299 74.4506 136.68 75.4452C137.06 76.4398 137.646 77.3431 138.399 78.0964C139.153 78.8497 140.056 79.4356 141.051 79.8162C142.045 80.1972 143.109 80.3641 144.172 80.3066Z" fill="#BA0517"/>
<path d="M239.974 346.352C236.445 346.372 233.001 347.436 230.077 349.411C227.153 351.386 224.879 354.182 223.542 357.448C222.205 360.714 221.866 364.302 222.566 367.761C223.267 371.219 224.976 374.392 227.478 376.881C229.98 379.369 233.163 381.06 236.625 381.742C240.088 382.423 243.674 382.063 246.932 380.709C250.19 379.353 252.974 377.064 254.933 374.129C256.891 371.193 257.936 367.744 257.936 364.215C257.977 361.849 257.54 359.5 256.651 357.308C255.761 355.115 254.438 353.125 252.76 351.457C251.083 349.789 249.085 348.477 246.888 347.6C244.691 346.722 242.339 346.298 239.974 346.352Z" fill="#BA0517"/>
<path d="M252.049 244.864H228.198C224.891 244.864 222.211 247.545 222.211 250.852V328.39C222.211 331.697 224.891 334.378 228.198 334.378H252.049C255.355 334.378 258.036 331.697 258.036 328.39V250.852C258.036 247.545 255.355 244.864 252.049 244.864Z" fill="#BA0517"/>
<path d="M431.576 128.207H48.3732C35.6774 128.234 23.509 133.289 14.5317 142.266C5.55439 151.243 0.499297 163.412 0.472961 176.108V431.577C0.499297 444.273 5.55439 456.442 14.5317 465.419C23.509 474.396 35.6774 479.451 48.3732 479.477H431.576C444.272 479.451 456.441 474.396 465.418 465.419C474.396 456.442 479.451 444.273 479.477 431.577V176.108C479.451 163.412 474.396 151.243 465.418 142.266C456.441 133.289 444.272 128.234 431.576 128.207ZM376.689 429.579H103.558C88.5894 429.579 80.2067 410.42 88.5894 396.748L225.205 176.307C226.652 173.594 228.809 171.326 231.445 169.744C234.082 168.162 237.099 167.326 240.173 167.326C243.248 167.326 246.265 168.162 248.902 169.744C251.539 171.326 253.696 173.594 255.142 176.307L391.558 397.048C393.568 400.024 394.778 403.466 395.074 407.045C395.37 410.624 394.742 414.219 393.249 417.484C391.757 420.749 389.449 423.577 386.55 425.696C383.65 427.815 380.254 429.151 376.689 429.579Z" fill="#BA0517"/>
</g>
<defs>
<clipPath id="clip0_1_2">
<rect width="480" height="480" fill="white"/>
</clipPath>
</defs>
</svg>
